<?xml version="1.0" encoding="UTF-8"?>
<svg xmlns="http://www.w3.org/2000/svg" viewBox="0 0 1874.53 865.29">
  <defs>
    <style>
      .cls-1 {
        fill: #0f2338;
        stroke-width: 0px;
      }
    </style>
  </defs>
  <g id="europe">
    <path class="cls-1" d="m1086.26,193.65c.03-.05.04-.1.07-.16-.62.36-1.16.76-1.58,1.19.71-.2,1.25-.52,1.51-1.04Z"/>
    <path class="cls-1" d="m1065.26,212.65c1.69-.48,3.43-1.14,5.01-2-1.44-1.75-2.54-3.72-3.05-6.21-.32-1.56-1.61-2.98-2.64-4.34-2.51-3.32-3.03-5.08-.17-7.41,6.85-5.56,13.69-11.47,23.33-10.71.13-.46.3-.9.51-1.34,17-32,34-62,44-96,4.49-15.7-6.68-29.16-18.87-40.39-2.19-.61-4.37-1.23-6.54-1.88-7.44-2.2-15.04-2.37-23.07-2.35.69,2.08,1.21,3.68,2.01,6.08-2.29-.54-3.7-.91-5.14-1.2-1.26-.41-2.59-.6-3.91-.57-4.7.71-9.42,1.5-14.04,2.59-2.42.57-4.55.64-6.58-.8-2.07-1.51-4.83-1.68-7.08-.46-1.44.52-2.92.92-4.43,1.2-6.1,1.58-12.11,3.41-16.99,7.66-2.27,1.97-4.57,2.65-7.35,1.09-3.04-1.7-1.07-3.94-.79-6.02.02-.16-.12-.34-.33-.9-.73-.35-1.77-1.3-2.72-1.22-1.96.16-4.24.37-5.73,1.47-1.85,1.36-.51,3.46.17,5.26.52,1.66.95,3.36,1.28,5.07-1.99-.25-4-.34-6-.26-5.12.7-10.38,1.32-12.1,7.55-.57,2.06-2.15,2.59-4.08,2.13-1.67-.4-3.3-1.01-4.99-1.39-1.81-.41-3.7-.89-5.51.93l3.66,4.32c-9.43.63-15.48-4.26-15.75-12.3,3.8-1.45,7.54-.12,11.32.25,3.41.45,6.85.66,10.29.62,2.1-.19,4.12-.88,5.88-2.03,2.83-1.76,2.83-4.66.14-6.57-1.44-.95-3.01-1.7-4.65-2.24-5.16-2.07-10.43-3.88-15.77-5.43-8.13-2.05-16.41-3.53-24.65-5.18-.9-.18-1.97.39-2.84.17-1.59-.43-3.75-.76-4.52-1.9-3.15-4.66-7.64-4.42-12.34-4.24-4.2.16-8.43-.24-12.6.1-5.09.42-10.41.6-15.11,2.32-3.91,1.49-7.96,2.59-12.09,3.28-3.17.51-6.23,1.56-9.04,3.13-3.09,1.75-5.97,3.3-9.69,2.85-1.36-.16-2.82.46-4.45.77.41,2.23.71,3.87,1.09,5.93-1.61,1.55-3.34,2.96-5.18,4.21-5.92,3.39-8.85,9.38-12.55,14.55-1.89,2.64-3.47,4.17-6.66,4.4-2.68.08-5.33.59-7.85,1.5-4.37,1.88-8.62,4.05-12.72,6.48-1.9,1.11-4.71,2.89-4.79,4.48-.35,6.08.59,12.17,2.76,17.87.29.5.68.94,1.14,1.29,3.58,3.76,9.3,4.51,13.73,1.78,2.35-1.29,4.49-2.97,6.82-4.29,4.67-2.64,6.21-2.02,8.38,2.79.89,1.89,1.95,3.69,3.18,5.38,1.61,2.27,4.84,4.12,3.44,7.33-1.4,3.2-5.05,3-8.04,3.49-.63,0-1.26-.08-1.87-.25-.89-3.18.66-7.06-2.65-9.91-1.84.59-3.85,1.15-5.79,1.88-5,1.87-6.34,4.74-4.68,9.92.59,1.83,1.4,3.58,1.87,5.43.87,3.41-.03,5.17-3.42,6.01-2.41.66-4.91.93-7.4.79-5.27-.46-8.72,1.57-11.26,6.15-2.86,5.1-7.7,8.8-13.37,10.23-1.63.5-3.08,1.48-4.15,2.82-4.72,6.17-10.45,9.32-18.41,6.74-.57.67-1.26,1.16-1.49,1.82-1.37,3.85-4.06,4.78-7.78,3.79-.94-.21-1.89-.34-2.85-.38-3.6-.26-6.11.78-6.11,2.81,0,2.96,2.56,3.52,4.75,4.13,3,.66,5.76,2.12,7.99,4.22,5.15,5.2,6.24,11.13,4.49,17.99-1.17,4.55-2.83,6.25-7.55,6.22-5.36-.03-10.71-.35-16.07-.58-5.36-.24-10.77-1.16-16.04-.64-6.52.64-8.16,3.37-7.24,9.75.77,5.27.64,10.38-2.25,15.04-2.1,3.39-2.6,6.62-.38,10.23.73,1.18.51,2.96.67,4.47.34,3.23,1.07,3.95,4.31,3.92,1.15,0,2.29-.28,3.44-.31,1.45-.11,2.9.16,4.22.77,3.59,1.67,9.92,5.28,12.38,4.98,3.05-.37,6.12-.56,9.18-.71,3.14-.15,6.03-.78,8.48-2.99,1.22-.92,2.53-1.71,3.91-2.37,4.58-2.66,8.97-5.25,7.65-11.92-.28-1.43,1.16-3.63,2.41-4.87,4.87-4.81,9.12-10.5,16.42-12.14,1.91-.43,2.39-2.1,2.4-4.08.02-5.01,2.27-6.76,7.1-5.8.38.04.76.13,1.11.28,5.23,2.9,9.88,1.7,14.37-1.78,1.8-1.4,3.98-2.31,5.92-3.54,4.95-3.11,7.88-2.85,11.16,2.05,3.14,4.84,7.25,8.99,12.06,12.18,2.38,1.57,4.97,2.81,7.68,3.7,5.87,1.96,11.02,5.62,14.81,10.52,2.37,2.91,2.26,3.09.65,9.48,6.48-.07,7.73-2.64,5.71-12.66,1.42-.23,2.81-.5,4.22-.66,1.51-.03,2.99-.46,4.29-1.24-1.55-1.16-3.04-2.41-4.66-3.46-2.55-1.66-5.13-3.29-7.8-4.72-1.82-.99-3.74-1.77-5.74-2.32-2.75-.74-4.99-1.97-6.28-4.59-1.58-3.31-4.07-6.1-7.18-8.06-2.24-1.42-3.76-3.58-3.28-6.26.33-1.61,1.27-3.02,2.63-3.94.78-.45,2.62.64,3.82,1.32,1.76,1.03,3.46,2.17,5.09,3.39,1.52,1.1,3.32,2.05,4.36,3.51,2.31,3.09,5.42,5.48,9,6.92,4.19,1.91,8.36,3.88,12.47,5.96,3.31,1.67,5.36,4.01,4.84,8.23-.1,2.08.47,4.13,1.61,5.87,1.93,2.86,4.04,5.6,6.33,8.18,2.31,2.81,4.53,5.46,4.8,9.5.24,3.57,2.79,5.43,6.15,5.79,2.1.23,4.01-.22,4.68-2.4.82-2.65,2.72-3.94,4.97-5.22,3.31-1.87,3.34-3.65.33-6.11-1.63-1.33-3.59-2.29-5.11-3.72-3.08-2.89-2.43-4.89,1.53-6.27,1.9-.84,3.72-1.85,5.43-3.03,4.67-2.7,6.77.43,9.53,1.85,3.68-.64,14.19-7.29,14.19-7.29-.05-.88-1.57-2.9-2.53-4.22-1.82-2.5-1.72-4.8-.13-7.44,1.22-2.33,2.28-4.75,3.17-7.23.21-.72.5-1.42.87-2.08,2.12-2.94,4.29-5.86,6.51-8.73,3.04-3.92,4.85-4.33,9.42-2.47,3.24,1.32,5.88,2.92,7.56,6.42,2.42,5.03,5.27,5.77,10.41,3.67,2.05-.84,3.98-1.96,7.34-3.63-1.05-.48-2.08-1.02-3.07-1.61-4-2.89-3.79-5.2.82-7.12,3.66-1.67,7.78-2.02,11.67-.99,2.67,4.99-3.04,6.53-3.96,10.01,1.16,2.91,3.85,3.66,6.19,4.86,5.62,2.9,11.29,5.73,16.85,8.74,1.87.97,3.57,2.23,5.02,3.76.73.8,1.29,1.6,1.67,2.38,10.96,1.18,21.92,3.13,32.87.39Zm-124.61-115.45c-1.64,3.07-3.93,3.38-6.27,3.41-2.5.03-4.99-.06-7.49-.14-4.64-.15-9.17-.2-13.03,3.23-1.18,1.04-3.29.96-4.8,1.73-.61.31-.77,1.52-1.13,2.32.78.35,1.59,1.04,2.32.96,1.09-.13,2.22-1.3,3.16-1.13,1.81.23,3.51.97,4.92,2.13,1.68,1.68,1.57,3.83-1.05,5.58-1.56-.63-3.28-1.41-5.05-2.04-4.49-1.61-7.65-.09-8.71,4.54-.63,2.76-.53,5.69-.81,9.19-1.29,1.06-2.99,2.6-4.83,3.95-1.95,1.43-4.1,2.08-6.46.81-3.92-2.12-7.78-1.39-11.62.33-1.93.86-3.86,1.72-5.84,2.44-2.99,1.08-5.97,1.33-8.88-.37-2.98-1.85-6.66-2.16-9.9-.82-3.27,1.21-6.79,1.39-9.65-3.15,1.81-.35,3.19-1.02,4.38-.77,3.64.77,6.4-.31,8.53-3.67,4.46,2.02,8.01,1,11.34-2.48,1.45-1.51,4.05-2.01,6.2-2.75,4.22-1.45,5.03-1.93,4.3-6.04-.89-5.08.83-8.1,5.48-9.85.89-.36,1.72-.86,2.46-1.48,2.92-2.37,2.91-4.79-.05-7.04-1.06-.81-2.32-1.35-3.43-2.1-3.32-2.22-3.57-3.25-2.47-7.25.76-3.02,2.78-5.57,5.55-6.99,1.69-.9,3.43-1.71,5.19-2.48,4.16-1.83,7.82-3.93,8.74-9.07.24-1.32,1.98-2.84,3.38-3.4,3.8-1.71,8.21-1.38,11.72.87-.17,3.44-2.41,5.17-4.86,6.68-2.45,1.51-5.11,2.69-7.48,4.29-1.37.92-3.38,2.46-3.32,3.64.25,5.04-.39,10.59,3.01,14.76,3.3,4.03,8.02,4.89,13.13,3.46,4.43-1.24,8.91-2.31,13.4-3.34,3.44-.96,7.14-.2,9.92,2.06h0Z"/>
    <path id="Tracé_142" data-name="Tracé 142" class="cls-1" d="m774.23,105.91c-.83,2.06-1.39,3.43-2.17,5.35l6.9,3c-.2.95-.51,1.88-.92,2.77-3.09,5-3.17,5.02.48,9.28,2.24,2.62,4.73,5.02,7.02,7.61,1.24,1.18,2.27,2.58,3.02,4.12.83,2.15,2.54,3.83,4.7,4.63,3.49,1.62,3.08,2.72,1.92,6.35-2.24,7.01-7.46,7.93-13.51,7.88-5.19-.04-10.32-.06-15.3,2.01-1.68.7-3.9.11-7.17.11,1.82-2.42,2.87-3.83,4.19-5.59l-2.97-3.58c0-.4.06-.8.19-1.19,1.04-1.81,2.02-3.65,3.23-5.35.74-1.04,1.68-1.92,2.77-2.57,1.62-.95,4-1.27,3.75-3.73-.15-2.41-1.92-4.41-4.29-4.86-3.24-.68-5.38-2.65-7.39-5.09-7.03-8.53-1.55-16.94,6.81-19.53,2.88-.7,5.81-1.25,8.75-1.63"/>
    <path id="Tracé_147" data-name="Tracé 147" class="cls-1" d="m729.33,147.81c.5-1.01,1.13-1.95,1.89-2.8,2.33-1.98,3.22-3.96,1.62-6.99-1.04-1.97-.06-3.45,2.32-4.28,2.11-.81,4.06-1.99,5.75-3.5,4.16-3.57,9.28-4.19,13.76-1.34,2.55,1.62,3.06,3.24,1.03,5.61-1.79,2.03-2.69,4.68-2.52,7.38.07,2.31-.75,4.09-3.19,4.85-4.02,1.26-7.99,2.7-12.04,3.88-3.3.96-6.45.95-8.61-2.82"/>
    <path id="Tracé_164" data-name="Tracé 164" class="cls-1" d="m833.11,227.29c0-1.33-.45-2.92.11-3.94.75-1.43,2-2.53,3.5-3.11,1.44-.18,2.89.32,3.9,1.36,2.7,3.19,1.46,9.61-2.19,11.61-1.3.66-2.81.79-4.2.35-.74-.29-.97-2.19-1.18-3.41-.06-.95-.01-1.91.15-2.85h-.09"/>
    <path id="Tracé_165" data-name="Tracé 165" class="cls-1" d="m860.12,240.67c5.29-2.13,10.77-.43,16.22-.7-.99,8.22-2.25,9.18-9.42,6.62-2.56-.91-4.8-2.73-7.19-4.14.13-.59.26-1.19.39-1.78"/>
  </g>
  <g id="asie">
    <path class="cls-1" d="m1727.39,59.24c-3.58-1.71-7.62-3.68-11.38-3.54-9.24.35-17.79-1.81-26.31-4.8-1.98-.69-4.14-.84-6.18-1.37-5.37-1.4-10.65-3.23-16.09-4.23-5.92-1.08-11.59-3.05-18.06-1.73-5.45,1.19-11.13.85-16.4-.98-6.71-2.64-13.21-4.61-20.39-4.27-1.45.07-2.9.24-4.51.38v4.85c-3.07,1.1-5.44-.43-7.74-1.69-3.86-2.12-7.64-3.66-11.92-1.13-.69.35-1.46.5-2.23.46-8.44-.15-16.89-.18-25.31-.65-2.65-.16-5.22-1.02-7.42-2.51-4.74-3.36-10.37-5.23-16.17-5.39-5.76-.2-11.52-.04-17.26.47-5.02.41-9.88.96-14.7-1.26-2-.7-4.1-1.02-6.22-.95-3.48-.03-6.86-1.23-9.58-3.4-2.88-2.3-6.56-3.37-10.23-2.97-4.39.28-8.81.16-13.21.13-6.92-.05-13.84-.17-20.76-.26-1.95-.03-3.86-.09-4.88,2.13-1.41,3.1-4.18,3.79-7.21,3.63-4.6-.24-9.2-.88-13.79-.87-2.76,0-6.48.02-8.08,1.66-3.26,3.36-6.17,2.59-9.27.87-2.28-1.38-4.39-3.01-6.29-4.87-5.9-5.37-12.36-8.94-20.75-8.13-3.82.28-7.66.22-11.47-.15-2.68-.25-5.36.33-7.7,1.67-1.8,1.06-3.83,1.65-5.92,1.72-3.8-.07-7.89-.04-11.34-1.38-6.57-2.56-13.29-2.41-19.91-1.89-8.14.64-14.05-2.12-18.51-8.74-.68-.93-1.59-1.65-2.65-2.1-6.32-2.73-12.6-5.67-19.87-4.39-2.11.19-4.22.24-6.33.15-3.14.13-6.13-.21-8.71-2.27-2.33-1.86-5.01-1.47-7.73-1.21-4.18.41-8.39.5-12.56.96-2.23.25-4.76.44-6.51,1.62-4.4,3.27-10.18,4.05-15.29,2.06-3.19-1.15-6.33-.63-9.57.37-5.47,1.69-11.08,2.93-16.63,4.38-3.84,1.01-8.06.99-11.22,3.92v4.18c-5.92,2.24-12.31-.87-17.63,2.56-.22,1.86-.41,3.47-.54,4.57-3.03,0-5.88-.67-8.17.18-2.51.94-4.5,3.3-6.71,5.04-1.2-.79-2.02-1.28-2.78-1.84-3.74-2.8-3.98-2.77-6.89.77-1.04,1.26-2.13,2.47-3.57,4.12-.8-1.08-1.54-2.21-2.19-3.38-2.98-6.57-9.25-9.17-15.96-6.55-2.65,1.03-7.48,7.79-7.43,10.4.05,2.95,3.59,7.2,6.85,8.42,2.02.75,4.74.6,5.4,4.23-1.69-.09-3.36-.29-5.02-.6-1.71-.43-3.41-.9-5.11-1.37,12.19,11.23,23.35,24.69,18.87,40.39-10,34-27,64-44,96-.22.43-.38.88-.51,1.34.58.05,1.16.11,1.76.2,5.35.84,6.84,3.02,5.4,8.73-2.6.51-5.16,1.21-7.66,2.1-.33.14-.63.3-.92.47-.02.05-.04.1-.07.16-.26.52-.8.84-1.51,1.04-1.86,1.93-1.71,4.56.66,7.08,2.13,2.21,4.54,4.13,7.18,5.7,3.36,2.04,6.4,4.14,6.93,8.62,4.62.41,10.11-.83,11.63,6.62-1.89.06-3.43.09-4.97.16-2.88.13-3.96,1.57-2.57,4.07,1.48,2.46,3.17,4.78,5.05,6.95,2.44,2.75,3.78,6.31,3.77,9.98.14,1.96-1.01,3.79-2.84,4.51-4.21,1.9-8.42,2.47-12.76.36-3.62-1.75-7.26-3.47-10.96-5.02-2.88-1.21-4.41-3.2-3.84-6.25.73-3.88,1.81-7.69,2.97-12.46h0c-2.18-3.96-6.71-7-10.75-10.44-1.47-1.25-2.83-2.52-3.98-3.92-1.58.86-3.32,1.52-5.01,2-10.96,2.74-21.92.79-32.87-.39,1.69,3.4.07,6.37-4.55,7.36-6.95,1.66-14.23,1.34-21.01-.93-3.07-1.09-6.08-2.37-9.14-3.48-8.02-2.9-15.8-2.89-23.06,2.17-2.45,1.58-5.41,2.14-8.27,1.55-3.79-.5-7.03-.16-9.57,3.51-1.92,2.77-11.95,18.83-7.39,24.3,1.76,2.1,3.54,4.01,6.74,3.56,1.15-.06,2.29.2,3.3.76,3.92,1.9,7.48,2.5,11.03-1.07,2.07-2.08,4.85-1.24,6.87.4,4.85,3.93,9.72,3.81,14.93.89,1.35-.73,2.82-1.24,4.33-1.5,3.78-.7,4.97.39,5.94,4.11,1.5,5.78,1.65,11.16-1.66,16.59-1.52,2.49-1.62,5.86-2.33,8.83-1.62,6.77-4.89,9.06-11.39,7.82,4.75,6.21,8.06,13.31,9.96,20.87,4.55-2.23,5.56-1.82,9.29,1.9,5.06,5.06,9.43,10.57,12.08,17.36.83,1.92,2.12,3.6,3.77,4.89,4.27,3.44,7.04,7.44,7.02,13.17-.02,5.34,3.34,8.99,7.23,11.87,7.63,5.67,10.43,14.99,17.45,21.22-1.27,1.65-2.15,2.81-3.49,4.55,7.51,5.83,8.97,14.4,9.94,23.56,1.02,1.81,3.15,4.29,3.24,4.08,3.7-1.23,6.55-2.22,9.43-3.13,3.06-.98,6.16-1.84,9.22-2.84,4.88-1.59,10.3-2.39,14.44-5.11,4.44-2.99,9.42-5.1,14.67-6.2,2.72-.57,5.46-1.39,6.65-4.04,2.47-5.53,7.11-6.94,12.49-7.76,2.6-.49,5.07-1.56,7.2-3.12,3.28-2.31,6.17-5.18,9.25-7.77,2.89-2.43,6.41-4.27,6.27-8.99-.03-1.16,1.77-2.34,2.64-3.58,2.3-3.05,4.45-6.22,6.43-9.48.72-1.28.95-3.7.21-4.77-2.94-4.26-6.14-8.52-12.01-8.95-5.39-.41-8.26-3.6-9.5-8.54-.52-2.1-1.1-4.02-3.65-4.95-2.32,2.12-4.56,4.19-6.83,6.23-4.35,3.91-10.17,5.78-15.98,5.14-2.84-.21-4.64-1.41-4.9-4.54-.19-2.24-.76-4.44-1.17-6.76-2.28-.2-4.11-.36-4.6-.4-3.77-3.88-6.5-7.06-9.64-9.8-3.61-2.89-6.53-6.54-8.57-10.69-1.45-3.25-.6-5.49,2.5-7.1,3.51-1.94,7.9-1.12,10.46,1.97,1.61,1.88,2.69,4.2,4.22,6.17,1.63,2.09,3.2,4.42,5.33,5.88,3.84,2.55,7.86,4.82,12.02,6.81,4.82,2.61,10.59,2.77,15.54.44,4.6-2.1,5.92-1.65,8.22,2.89,1.44,2.84,3.45,4.74,6.43,5.18,8.54,1.26,17.08,2.78,25.67,3.24,7.49.23,14.98-.09,22.42-.96,4.18-.4,6.87,1.17,9.54,4.01,2.65,2.74,5.5,5.28,8.53,7.6,1.94,1.54,4.37,2.45,6.31,4,1.12.94,1.88,2.23,2.18,3.66,1.6,9.32,9.44,13.23,17.64,8.67.33-.19.64-.43.99-.59,2.22-1.01,3.82-.44,4.48,1.78.23,1.13.34,2.28.34,3.43.98,10.72,3.98,21.16,8.84,30.77,3.34,6.68,7.51,12.92,9.35,20.29.24,1.13.77,2.19,1.53,3.06,5.42,5.55,7.8,12.64,10.34,19.7.81,2.16,2.01,4.15,3.54,5.87,2.52,2.85,5.18,2.65,7.78-.15,1.41-1.29,2.72-2.69,3.93-4.18,2.33-3.43,5.62-6.81,6.28-10.6.74-4.25.77-8.61,2.21-12.85.69-2.03.11-4.56-.18-6.83-.31-2.28-.79-4.54-1.42-6.75-.84-2.28.14-4.84,2.29-5.98,5.92-3.11,11.07-7.49,15.1-12.82,2.51-3.32,6.01-5.87,8.81-9,2.28-2.85,5.13-5.18,8.38-6.84,1.84-.9,3.27-2.46,4.01-4.37,1.92-6.23,1.73-6.25,7.93-6.46,6.35-.21,12.68-.53,18.19-4.39,1.89-1.32,3.45-.57,5.01,1.09,4.82,5.14,8.66,11.26,15.05,14.86,1.05.59,1.59,2.1,2.34,3.19.98,1.64,2.07,3.21,3.25,4.71,2.92,3.21,4.47,6.56,2.75,10.99-1.04,2.21-.25,4.84,1.83,6.12,2.26,1.48,4.66,1.9,7.01.27,1.73-1.2,3.29-2.63,4.97-3.91,3.56-2.7,5.23-2.37,7.23,1.47.62,1.19,1.01,2.48,1.53,3.73,2.21,5.3,4.46,10.58,6.6,15.91.83,1.71,1.36,3.55,1.58,5.44.25,7.21,2.04,14.39.16,21.68-1.11,4.3.53,7.52,4.43,10.21,6.21,4.28,10.34,10.18,11.19,18.01.15,2.29.75,4.53,1.76,6.58,4.05,7.5,10.29,13.58,17.89,17.44,1.45.61,2.94,1.13,4.45,1.55,1.46-2.42,1.14-5.52-.8-7.58-2.63-3.38-3.19-7.18-3.34-11.34.03-2.84-.75-5.62-2.23-8.04-3.5-4.81-7.8-9.09-13.51-11.34-3.58-1.41-5.32-4.02-6.7-7.39-1.12-3.04-2.72-5.88-4.72-8.42-2.87-3.35-3.17-6.7-2.06-10.69,1.24-4.4,2.11-8.9,3.25-13.32.39-1,.89-1.96,1.5-2.84,4.84,2.86,9.36,5.5,13.85,8.2.83.49,1.57,1.1,2.2,1.83.87,1.02,1.43,2.31,2.35,3.26,1.84,1.9,3.55,4.22,5.82,5.35,4.35,2.16,7.21,4.86,6.81,10.06-.03.41.65.88,1.05,1.39,3.58.4,5.9-1.71,7.62-4.25,2.78-3.95,6.69-6.95,11.23-8.61,1.99-.72,3.81-1.85,5.34-3.31,1.45-1.46,2.41-3.35,2.73-5.39.79-9.64-1.69-18.29-8.98-25.09-2.67-2.49-5.62-4.68-8.2-7.25-3.74-3.58-7.26-7.38-10.54-11.37-2.87-3.65-2.86-5.8.23-9.29,3.03-3.44,6.49-6.48,10.3-9.04,3.74-2.49,8.74-1,11.23,2.5,2.18,3.07,1.87,4.43-2.02,8.84-2.75,3.12-2.96,5.85-.61,8.05,2.63,2.46,5.98,2.4,8.79-.14,3.37-3.06,3.84-6.83,1.32-10.72-3.19-4.92-2.22-7.52,3.43-9.04,1.67-.45,3.41-.59,5.08-1.04,1.65-.45,3.27-1.01,4.84-1.67,3.16-1.31,6.23-2.83,9.43-4.04,3.59-1.35,7.34-2.28,10.9-3.7,7.86-2.98,13.98-9.31,16.69-17.27,1.04-2.88,1.77-5.88,2.72-8.79.53-1.61.84-3.58,1.95-4.67,2.9-2.85,1.98-6.36,2.47-9.71.67-4.57-2.14-6.54-5.29-8.2-.39-6.24-2.01-10.53-4.41-12.89-3.27-3.2-6.37-6.59-9.63-9.83-1.67-1.82-3.53-3.47-5.54-4.91-5.92-3.83-6.19-6.17-.82-10.81,1.45-1.26,3.07-2.32,4.47-3.63.99-1.03,1.9-2.13,2.74-3.29-6.54-4.36-8.25-4.59-14.59-1.54-2.23,1.07-4.18,1.06-5.69-.84-2.31-2.89-5.33-4.2-8.79-5.05-1.24-.36-2.23-1.28-2.69-2.49-.14-.86,1.15-2.12,2.04-2.95,2.2-2.06,4.57-3.94,6.8-5.97.99-.9,1.6-2.38,2.72-2.92,1.78-.86,3.92-1.78,5.77-1.54,2.43.31,1.84,2.85,2.1,4.72.37,1.81.87,3.58,1.49,5.32,1.7-.55,3.4-1.09,5.09-1.66.17-.09.33-.2.47-.33,7.43-4.84,15.33-1.97,18.13,6.37.66,1.71,1.86,3.17,3.41,4.15,2.49,1.54,10.82,8.05,12.45,10.4.11.16.28.29.35.46.85,1.69,1.53,3.45,2.04,5.28,1.23,6.69,2.95,7.83,9.28,5.77,9.53-3.11,11-7,5.18-15.1-4.2-6.02-9.84-10.88-16.41-14.15-4.75-2.32-5.16-4.76-1.18-8.2,3.01-2.61,3.5-5.46,3.2-9.2-.53-6.78,4.92-10.95,11.08-8.51,2.86,1.29,6.22.75,8.53-1.37,2.49-1.84,4.24-4.51,4.94-7.52,1.56-6.87,4.42-13.5,3.4-20.81-.03-1.16.17-2.3.6-3.38,1.18-3.74.39-7.83-2.11-10.86-1.61-2.15-3.27-4.26-4.84-6.45-1.05-1.37-1.96-2.83-2.71-4.38-.3-.86-.17-1.82.36-2.57.72-.57,1.68-.75,2.56-.46,1.86.97,3.55,2.24,4.97,3.78,3.54,4.29,6.8,8.79,10.15,13.24,1.78,2.37,3.3,5.05,6.59,5.52.76-3.07,1.43-5.81,2.41-9.75h-.01c-2.04-1.9-4.17-4.45-6.81-6.25-6.22-4.19-11.77-9.29-16.47-15.13-1.19-1.51-2.7-2.74-4.42-3.61-1.16-.56-3.56-.74-4.12-.04-2.95,3.62-5.77,1.83-8.68.29-1.87-.98-3.73-1.98-5.54-3.07-2.83-1.69-5.74-2.28-8.74-.6-3.06,1.72-5.86,1.11-8.68-.56-3.28-1.94-6.42-4.09-10.67-3.59-2.13.25-3.05-1.46-2.17-3.53.52-1.22,1.54-2.23,2.06-3.45,1.93-4.52,4.2-8.96,5.47-13.66,1.64-6.01,3.49-8.13,9.87-8.13,4.02,0,8.04.51,12.06.82,4.6.35,9.26,1.08,13.59-1.13,3.43-1.74,6.63-1.29,9.93.3,2.19,1.18,4.51,2.13,6.9,2.82,4.75,1.13,9.74.36,13.93-2.15-.79-1.14-1.67-2.21-2.65-3.2-2.62-2.11-2.29-4.69-1.28-7.32,1.99-5.2,8.24-7.06,13.59-4,1.82,1.04,3.35,2.59,5.15,3.68,4.72,2.84,9.41.4,9.88-5.07.09-1.01.18-2.02.38-4.34,2.67,2.7,4.59,4.47,6.3,6.43,1.36,1.45,1.6,3.62.61,5.35-1.76,3.64-3.19,7.35-2.76,11.6-.1,1.33-.78,2.54-1.84,3.33-3.18,2.34-2.76,5.07-1.56,8.19,2.22,5.78,6.28,10.05,10.98,13.82,7.94,6.37,15.91,12.71,23.9,19.02,1.77,1.4,3.69,2.61,5.42,3.84,3.23-1.82,4.08-3.9,2.64-6.94-.52-1.22-.8-2.52-.82-3.84-.12-2.72-.04-5.44-.04-9.27l2.63-3.35c-.43-.74-.6-1.41-1.03-1.69-2.82-1.89-5.32-3.8-4.14-7.89.21-.72-.83-2.02-1.59-2.75-2.07-1.97-4.24-3.84-6.48-5.61-1.18-.93-2.62-2.25-3.9-2.21-5.65.21-6.64-3.41-7.17-7.76-.45-3.65.45-5.26,4.03-5.1,3.93.17,7.54.2,10.96-2.3,1.16-.85,3.33-.53,5-.38,1.51.27,2.99.67,4.43,1.19,4.35,1.15,5.25.84,7.81-2.7.56-.78,1.01-1.64,1.6-2.4,4.19-5.41,9.2-9.17,16.59-8.35,1.22-.08,2.41-.35,3.55-.81-1.4-3.4-4.12-4.08-6.57-5.1-2.48-1.03-5.19-1.65-7.44-3.03-1.45-.88-3.35-3.07-3.08-4.22.39-1.68,2.37-3.19,4-4.31,1.19-.66,2.57-.89,3.91-.67,3.98.49,7.94,1.19,11.85,2.1,4.46,1.1,8.77,2.8,13.24,3.86,2.49.59,5.29,1.19,7.57-1.08.04-4.2-2.42-8.03-6.26-9.73Z"/>
    <path id="Tracé_138" data-name="Tracé 138" class="cls-1" d="m1559.42,458.71c-1.85,5.65-7.42,8.44-6.94,14.44.42,5.25,3.08,9.31,6.23,13.54-.97.91-1.64,1.95-2.57,2.33-3.69,1.47-5.33,3.79-4.88,7.98.16,1.47-1.26,3.65-2.6,4.64-3.18,2.22-5.06,5.86-5.05,9.74-.5,8.82-7,12.14-14.75,7.59-3.47-2.04-6.83-3.26-10.89-1.94-1.29.2-2.61.08-3.84-.37-2.22-.53-4.36-1.53-6.6-1.81-3.14-.39-5.04-1.86-5.35-4.97-.43-3.24-1.93-6.25-4.25-8.55-3.55-3.98-4.37-8.9-3.63-14.01.66-4.58,3.02-6.08,7.69-5.37,4.88.74,4.95.78,7.49-3.66,1.14-2,2.51-3.29,4.89-3.41,4.9-.25,8.12-3.12,10.53-7.05,1.65-3.06,4.36-5.42,7.62-6.63,3.28-1.13,5.18-3.79,6.74-6.75.99-2.08,2.12-4.08,3.39-5.99,2.08-2.89,4.09-2.94,6.65-.48.3.24.56.54.75.87,1.94,4.24,5.23,7.72,9.37,9.88"/>
    <path id="Tracé_140" data-name="Tracé 140" class="cls-1" d="m1404.2,457.63c4.92.78,9.25,1.2,13.43,2.25,1.66.42,3.01,2.19,4.44,3.43,3.17,2.73,6.28,5.52,9.44,8.26.43.37,1.09.53,1.43.96,4.87,6.1,12.21,8.39,18.61,12.12,4.87,2.84,9.93,5.51,8.69,12.65-.15.84.92,2,1.6,2.86,1.18,1.49,2.68,2.75,3.7,4.33,1.7,2.63,3.32,3.86,6.53,1.87,3.05-1.88,4.4,1.06,5.79,3.03,1.41,2,2.41,4.21-.37,5.91-3.27,2-3.63,5.19-3.77,8.5-.04.95.12,1.92.09,2.87-.17,5.85-4.47,8.36-9.77,5.55-1.67-.95-3.2-2.13-4.54-3.51-5.2-5.1-10.47-10.16-15.38-15.54-1.87-2.06-2.75-4.98-4.23-7.42-1.81-3.33-3.89-6.49-6.23-9.48-2.42-2.79-4.76-5.41-5.63-9.15-.37-1.69-1.18-3.25-2.35-4.53-4.96-5.02-10.05-9.91-15.22-14.72-2.94-2.74-6.08-5.24-6.27-10.25"/>
    <path id="Tracé_141" data-name="Tracé 141" class="cls-1" d="m1631.17,219.03c5.75.93,10.81,4.3,13.88,9.25,1.14,1.76,1.67,3.84,1.51,5.92-.5,4,.12,8.06,1.8,11.72,1.01,2.69,1.81,5.46,2.38,8.28.87,3.63.24,4.91-3.33,6.01-2.59.73-5.23,1.24-7.9,1.53-3.78.51-7.06,1.64-9.02,5.26-1.38,2.55-3.28,3.56-6.15,1.92-2.55-1.46-4.82-.42-6.79,1.4-2.85,2.61-5.59,5.41-10.39,4.36-.42,3.06-.69,5.49-1.1,7.88-.55,3.23-3,4.3-5.28,2.03-3.11-3.1-5.84-6.57-8.69-9.93-1.27-1.31-1.24-3.4.07-4.66.02-.02.04-.04.06-.05,4.17-4.21,8.18-8.7,12.91-12.18,2.16-1.59,5.87-1.44,8.87-1.43,4.43.01,7.83-.88,9.58-5.55.85-1.66,2.26-2.98,3.97-3.72,6.74-3.27,9.25-10.84,5.48-17.26-.87-1.48-1.95-2.86-2.75-4.38-1.03-1.95-1.48-3.97.9-6.38"/>
    <path id="Tracé_144" data-name="Tracé 144" class="cls-1" d="m1588.02,499.29c-.48,5.19-5.87,5.24-7.78,9.21,1.79,3.98,3.87,8.26,5.63,12.65.88,2.06,1.37,4.28,1.44,6.52,0,2.96-2.19,4.26-4.64,2.59-2.27-1.7-4.21-3.8-5.73-6.19-1.91-2.77-3.32-5.88-5.09-9.1-2.69,2.09-2.54,4.62-2.85,7.02-.21,2.47-.66,4.91-1.33,7.29-.6,1.07-1.72,1.75-2.95,1.79-1.12-.54-1.92-1.58-2.17-2.8-.24-1.22.41-2.6.66-3.91.5-2.58.24-4.98-1.81-6.88-2.37-2.2-2.17-4.43-.77-7.21,1.24-2.76,2.2-5.63,2.86-8.58,1.17-4.33,3.01-5.22,6.32-2.23,2.91,2.63,5.71,2.53,8.98,1.3,2.82-1.06,5.63-2.43,9.23-1.48"/>
    <path id="Tracé_146" data-name="Tracé 146" class="cls-1" d="m1520.28,541.25c-.48,3.65,2.28,4.4,5.16,5.19s5.99,1.25,7.92,4.21c-1.5,2.32-3.6,2.03-5.64,1.83-5.51-.53-11.02-1.06-16.53-1.66-1.33-.14-2.65-.41-3.93-.8-6.18-1.96-12.58-3.15-19.05-3.53-4.86-.29-9.61-3.33-14.25-5.49-1.15-.86-1.82-2.22-1.8-3.66.05-.83,1.76-1.97,2.9-2.25,3.93-1.04,8.09-.68,11.79,1.02,2.26,1.04,4.44,2.48,6.82,2.97,2.91.6,6.22,1.16,8.93.33,3.45-1.13,7.18-1.09,10.61.11,2.15.72,4.42,1.09,7.09,1.73"/>
    <path id="Tracé_148" data-name="Tracé 148" class="cls-1" d="m1649.42,205.39c-2.61,2.2-4.81,4.32-7.29,6.03-1.11.76-2.76.79-4.19,1-.58-.04-1.14-.2-1.65-.46-6.03-1.89-6.13-1.83-7.6,4.78-2.84-.24-5.36-1.93-6.65-4.47-.56-.99-.81-3.01-.21-3.65,4.08-4.46,2.94-8.71.04-13.1-.37-1.01-.61-2.06-.71-3.13,1.97.64,3.91,1.4,5.79,2.27,5.42,2.97,10.96,5.49,17.23,6.12,2.6.26,4.83,1.32,5.24,4.63"/>
    <path id="Tracé_150" data-name="Tracé 150" class="cls-1" d="m1303.8,430.28c5.64,2.56,11.63,11.69,11.3,17.24-.26,3.37-2.84,6.11-6.2,6.56-2.99.49-5.12-.94-6.5-4.39-1.94-4.83-1.32-13.44,1.4-19.42"/>
    <path id="Tracé_153" data-name="Tracé 153" class="cls-1" d="m1610.31,551.68c-1.34,1.19-2.75,2.29-4.23,3.29-4.1,2.38-8.25,4.67-12.45,6.88-1.74.91-3.61,2.75-5.64.66-1.31-1.35-.14-3.43,2.95-5.25,3.12-1.84,6.25-3.69,9.49-5.3,2.86-1.43,5.86-2.78,9.86-.28"/>
    <path id="Tracé_155" data-name="Tracé 155" class="cls-1" d="m1557.7,553.04c-4.15.64-7.9,1.36-11.67,1.76-3.16.33-4.31-.42-6.67-3.52.73-.55,1.56-.96,2.43-1.23,3.81-.36,7.62-.62,11.45-.78,2.18-.09,4.26.23,4.45,3.77"/>
    <path id="Tracé_157" data-name="Tracé 157" class="cls-1" d="m1610.75,175.97c3.83,1,6.81,2.54,8.14,5.94.38.96-.73,2.49-1.27,4.06-4.53-2.3-7.02-4.97-6.88-10"/>
    <path id="Tracé_158" data-name="Tracé 158" class="cls-1" d="m1567.65,562.07c-3.52,1.22-5.71-.38-7.56-3.15,4.34-2.67,6.17-1.91,7.56,3.15"/>
    <path id="Tracé_159" data-name="Tracé 159" class="cls-1" d="m1574.92,552.65c-4.6,2.4-5.27,2.3-8.89-1.05,3.82-2.45,4.54-2.38,8.89,1.05"/>
  </g>
  <g id="oceanie">
    <path id="Tracé_136" data-name="Tracé 136" class="cls-1" d="m1643.98,576.06v-6.52c3.15,1.25,5.8,2.13,8.3,3.31,4.63,2.2,9.32,3.57,14.46,2.13.36-.14.75-.2,1.13-.17,1.4.35,3.37.37,4.01,1.3.63.9.15,2.84-.31,4.15-.86,2.45-2.06,4.78-3.6,8.24.59-.45.18-.04-.32.23-5.88,3.16-5.94,6.11-.36,9.93,6.13,4.21,12.17,8.55,18.23,12.86,2.63,1.87,4.96,2.15,7.2-.45,2.52-3.09,4.65-6.48,6.33-10.09.86-2.14,1.34-4.42,1.4-6.72.66-7.19,3.6-13.69,6.14-20.28.75-1.96,2.58-3.51,4.28-5.71,5.64,6.63,5.61,13.95,5.92,21.36.87.43,1.69.88,2.53,1.26,5.69,2.55,5.72,2.59,5.46,9.09-.04.19-.05.38-.04.57,1.88,6.78,3.21,13.7,3.98,20.69.16,1.85,2.92,4.21,5.01,5.02,5.98,2.35,8.38,7,9.22,12.72.14,2.3,1.38,4.4,3.32,5.65,1.06.69,2.39,1.85,2.52,2.93.63,5.18,4.11,8.61,7.19,12.21,2.82,3.28,3.52,6.39,1.78,10.5-1.06,2.86-1.65,5.87-1.73,8.92-.14,3.66-1.28,7.2-3.29,10.26-3.34,4.93-6.59,9.91-9.91,14.84-2.72,4.21-6.4,7.73-10.72,10.28-1.21.59-2.32,1.36-3.3,2.28-7.54,8.13-16.82,14.64-22.9,24.14-2.81,4.38-6.43,7.02-11.8,6.89-5.04-.12-9.38,1.86-13.34,4.7-3.27,2.34-6.37,3.4-9.89.47-1.98-1.66-4.77-1.93-7.03-.68-3.18,1.49-6.87,1.4-9.98-.23-2.21-1.06-4.82-1.27-7.15-2.13-4.33-1.6-5.78-4.29-4.14-8.53,1.17-3.03,1.26-5.38-1.05-7.88-.88-.96-.95-2.67-1.4-4.03-.52-1.59-1.14-3.16-1.56-4.77-.37-1.41-.54-2.87-.96-5.2l-12.73,7.95c-.6-1.28-1.38-2.2-1.43-3.16-.45-8.33-4.26-13.81-12.36-16.73-6.3-2.48-13.29-2.61-19.68-.37-6.34,2.22-12.68,4.02-19.61,3.96-5.94-.05-11,3.39-15.5,6.98-3.2,2.78-7.44,4.06-11.65,3.49-2.66-.32-5.38-.06-8.06-.18-4.82-.12-9.58,1.05-13.8,3.38-3.39,1.77-6.94,3.22-10.6,4.33-3.56,1.07-7.43.34-10.35-1.97-4.23-3.09-4.61-5.04-.78-8.63,2.86-2.6,4.87-5.99,5.79-9.73.47-1.82.54-3.72.2-5.57-.98-3.72-.93-7.63.15-11.32.29-1.48.24-3-.14-4.46-.8-4.69-1.9-9.34-2.51-14.06-.16-1.64.32-3.29,1.36-4.57,1.96-2.11,2.65-4.1,1.4-6.73-1.37-2.88-.81-5.58.91-8.16.76-.88,1.29-1.92,1.56-3.04.39-5.59,3.71-8.36,8.66-10.14,2.29-.82,4.27-2.55,6.32-3.97,3.67-2.56,7.4-4.87,12.16-4.42.58.05,1.16-.04,1.69-.25,6.59-2.74,13.63-3.8,20.44-5.67,6.52-1.79,11.06-7.05,13.08-13.58,1.34-4.35,2.85-6.96,8.05-7.1,4.17-.19,7.86-2.78,9.45-6.64,2.61-5.69,7.77-8.34,13-10.77,2.99-1.61,6.67-1.12,9.13,1.22.71.65,1.45,1.26,2.22,1.83,4.44,3.24,6.17,2.94,9.33-1.7,1.73-2.54,3.43-5.1,5.03-7.71,2.4-3.93,5.59-6.2,10.44-5.68,1.73.02,3.46-.11,5.17-.38"/>
    <path id="Tracé_137" data-name="Tracé 137" class="cls-1" d="m1649.62,496.32c6.04.16,11.09,4.65,11.95,10.63.22,1.88.86,3.68,1.87,5.28,3.06,4.67,5.55,4.68,9.63.7,2.11-2.18,4.49-4.08,7.08-5.66,3.52-2.22,8.03-2.12,11.45.26,1.29.83,2.69,1.48,4.14,1.96,8.53,2.82,17.1,5.53,25.62,8.38,2.94.89,5.78,2.06,8.49,3.48,2.1,1.19,4.55,2.78,5.48,4.82,1.6,3.51,4.66,6.15,8.38,7.19.9.33,1.75.8,2.51,1.38,2.04,1.48,2.46,3.04.74,5.29-3.2,4.17-3.01,4.32.96,7.68,4.05,3.43,7.99,6.99,11.97,10.5.43.38.83.8,1.19,1.26,1.3,1.65,3.14,3.47,1.75,5.59-1.63,2.49-3.69.4-5.59-.18-1.78-.66-3.66-1.05-5.56-1.14-5.75.15-9.43-2.5-11.57-7.68-.55-1.22-1.18-2.41-1.88-3.55-1.96-3.41-5.16-5.08-8.81-5.92-3.75-.86-6.9.17-8.81,3.7-2.28,4.22-5.37,6.37-10.53,6.37-4.57,0-8.37-.73-11.27-4.33-2.59-3.2-5.69-3.45-9.29-2.01-1.57.71-3.25,1.16-4.97,1.32-1.28.03-2.5-.51-3.32-1.48-.54-.93-.23-2.57.15-3.76.26-.81,1.21-1.45,1.94-2.06,1.89-1.58,4.64-2.98,3.52-5.91-1.06-2.76-2.41-6.21-4.69-7.54-7.01-4.08-13.68-9.06-22.32-9.82-5.09-.45-9.83-2.13-10.17-8.81-.06-1.26-2.2-2.41-3.41-3.59-3.3-3.23-3.01-9.52.62-11.57.87-.39,1.8-.65,2.75-.77"/>
    <path id="Tracé_143" data-name="Tracé 143" class="cls-1" d="m1832.17,770.12c-1.62,3.91-4.8,5.73-7.79,7.76-4.09,2.79-8.11,5.69-12.26,8.4-1.37,1.03-2.97,1.72-4.67,2-5.51.46-9.49,3.54-13.72,6.66-4.95,3.59-10.14,6.82-15.54,9.68-4.16,2.24-8.65,1.44-12.75-.61-3.08-1.53-3.35-3.7-.65-5.77,2.15-1.6,4.49-2.94,6.96-3.97,7.38-3.21,14.77-6.4,22.29-9.29,8.31-3.19,16.1-7.16,22.86-13.03.87-.75,1.83-1.39,2.76-2.07q5.73-4.13,12.52.23"/>
    <path id="Tracé_145" data-name="Tracé 145" class="cls-1" d="m1874.53,747.16c-1.89,4.82-4.3,7.74-8.37,8.46-3.69.65-5.96,2.96-8.65,5.18-4.64,3.68-9.51,7.07-14.57,10.15-1.2.76-3.08.44-4.65.61-.24-.43-.48-.85-.73-1.28l5.87-6.8c-.67-1.66-1.36-3.38-2.17-5.38,2.37-1.83,4.59-3.62,6.88-5.32,5.37-3.98,8.04-9.11,7.08-15.91-.21-1.71-.26-3.44-.15-5.16-.13-1.57,1.05-2.95,2.62-3.08.24-.02.49,0,.73.04,1.4-.03,2.56,1.08,2.59,2.48,0,.23-.02.46-.08.69-.72,4.02.65,7.45,2.27,10.98,2.3,5.01,2.21,5.07,7.62,4.35,1.23-.07,2.46-.07,3.69-.02"/>
    <path id="Tracé_149" data-name="Tracé 149" class="cls-1" d="m1676.27,768.73c-2.7,8.13-7.55,13.13-14.94,15.6-1.44.48-2.96.72-4.48.71-3.04-.04-4.92-1.83-4.38-4.66.78-3.73,1.84-7.39,3.19-10.95.69-1.93,2.36-3.17,4.57-2.31,3.93,1.55,8.25,1.83,12.35.78.93-.23,2.08.43,3.69.81"/>
  </g>
  <g id="amerique">
    <path id="Tracé_135" data-name="Tracé 135" class="cls-1" d="m334.85,317.27c-3.68-1.19-6.94-2.18-10.16-3.31-4.26-1.5-6.15-3.12-4.17-8.19,1.39-3.3.53-7.13-2.14-9.51-1.58-1.6-3.17-2.76-5.55-1.43-2.85,1.6-5.35.67-8.08-.87-2.33-1.24-4.89-1.97-7.52-2.13-3.45-.26-6.92-.09-10.33.51-2.02.49-3.87,1.53-5.34,3-4.19,3.96-8.35,5.03-14.1,2.79-8.53-3.32-17.17-3.68-25.09,2.56-2.98,2.35-6.64,3.82-9.97,5.75-4.65,2.69-7.39,6.41-7.33,12.12.02,2.14-1.13,4.36-2.04,6.41-1.08,2.45-2.54,4.73-3.7,7.14-5.78,11.94-3.45,23.16,3.28,33.87,2.88,4.59,9.15,6.9,14.6,5.77,3.38-.7,6.76-1.47,10.17-1.88,5.02-.61,8.64-2.91,10.61-7.65.59-1.42,1.28-2.8,2.04-4.13,3.06-5.33,12.16-9.08,18.05-7.5,2.31.62,4.14,4.31,2.99,7.23-2.16,5.48-4.73,10.79-7.16,16.16-.43.64-.82,1.3-1.17,1.97-1.19,3.76-2.3,7.54-3.57,11.74,3.3,2.08,7.11,1.73,10.87,1.48,3.26-.21,6.54-.98,9.75-.71,2.83.25,5.56,1.12,8.01,2.56,3.84,2.31,4.38,5.2,3.12,9.44-1.52,5.13-3.01,10.28-4.1,15.51-1.6,7.69,4.95,17.83,12.57,19.55,1.88.28,3.81.14,5.63-.42,1.83-.58,3.61-1.31,5.31-2.2,1.13-.5,2.23-.85,3.31-1.05,3.57-.66,6.86.36,10.06,3.02,5.08,4.22,7.14,3.92,11.21-1.44,1.48-2.01,2.7-4.19,3.64-6.5,1.24-3.55,4.45-6.03,8.19-6.34,5.78-.53,11.26-2.86,15.65-6.66,1.15-.81,2.62-.99,3.93-.5,1.8,1.14.3,2.62-.44,3.93-.39.83-.71,1.68-.96,2.56,2.96,2.01,4.87.46,6.85-1.19,4.45-3.73,5.13-3.76,10.04-.75,1.03.52,1.98,1.19,2.81,1.99,2.74,3.31,7.06,4.87,11.28,4.08,2.39-.3,5.14,1.13,7.52,2.2,2.48,1.12,4.55,1.36,7-.2,7.29-4.66,9.93-4.31,16.29,1.83l4.38-1.92c.25.28.58.5.69.79.99,3.07,2.15,6.08,3.46,9.02.57,1.14,2.29,1.96,3.65,2.4,3.66,1.19,6.21,3.58,8.54,6.52,2.08,2.75,4.44,5.27,7.05,7.53,3.51,3.12,8.28,4.4,12.88,3.47,6.36-1.23,12.2.52,17.5,4.08,2.55,1.71,4.95,3.64,7.46,5.42,3.28,2.32,5.4,5.11,5.81,9.4.22,2.29,1.72,4.66,3.18,6.58,2.04,2.68,3.87,5.24,3.43,8.83-.09.73-.19,1.89.22,2.2,4.14,3.2,7.49,8.34,13.24,8.21,6.91-.14,12.44,3.66,18.69,5.3,1.28.33,2.28,2.45,3.01,3.95,1.08,2.23,2.68,2.81,5.04,3,4.17.33,8.31,1.17,12.46,1.74,2.26.31,4.58.94,6.78.66,4.25-.58,8.54.76,11.71,3.64,2.35,1.99,4.63,4.04,6.93,6.09,3.39,3.03,7.15,5.21,11.87,5.1,3.58-.09,5.65,1.74,6.96,4.91,4.4,10.54,3.9,19.92-4.27,28.15-4.33,4.36-8.57,8.77-10.83,14.74-.94,1.9-2.2,3.62-3.73,5.08-3.51,3.71-4.85,8.98-3.54,13.92,1.86,7.59,1.44,14.8-2.4,21.72-.47.84-.69,1.79-.66,2.75.6,9.74-6.14,16.64-9.67,24.74-1.36,3.1-4.84,4.52-8.25,4.48-10.01-.13-17.82,5.35-26.03,9.82-6.17,3.36-8.53,8.54-6.95,15.46.48,1.86.8,3.75.97,5.66.09,1.48.18,3.32-.57,4.43-3.53,5.21-7.42,10.17-11.05,15.32-1.36,2-2.56,4.11-3.59,6.3-2.58,5.3-4.75,10.82-7.64,15.94-3.36,5.95-8.78,7.63-15.32,5.77-1.66-.47-3.33-.96-5.02-1.27-1.8-.33-3.64-.46-6.31-.77,3.19,4.24,5.71,7.7,8.34,11.08,4.61,5.91,2.66,13.35-4.55,15.99-3.2,1.18-6.71,1.54-10.08,2.23-.94.19-1.91.26-2.85.4-7.08,1.03-7.23,1.22-6.48,8.42.56,5.37-1.12,7.02-6.46,6.39-2.39-.28-4.78-.46-7.34-.7.95,6.24,1.12,6.39,6.06,7.35,1.33.34,2.64.76,3.92,1.26-.33,1.03-.33,1.97-.8,2.36-3.35,2.82-4.88,6.05-3.98,10.62.28,1.41-1.31,3.37-2.39,4.81-.77,1.02-2.22,1.5-3.22,2.38-2.93,2.59-2.81,5.53.54,7.51,2.07,1,4.22,1.81,6.42,2.43,6.17,2.28,6.92,5.1,2.57,10.15-1.68,1.96-2.89,3.88-2.82,6.66-.01,1.68-.59,3.3-1.65,4.61-2.04,2.36-2.02,4.58-.15,6.7,4.05,4.61,7.98,9.42,12.58,13.45,2.44,2.14,6.12,2.97,9.33,4.14,2.88,1.06,5.97,1.64,7.62,4.96-1.09,3.78-4.19,4.36-7.52,4.78-10.19,1.28-19.16-2.87-28.27-6.28-3.2-1.29-6.32-2.76-9.36-4.38-1.38-.64-2.66-1.48-3.79-2.5-3.57-3.48-6.71-7.44-11.61-9.26-.53-.22-1-.58-1.34-1.05-4.14-5.48-8.33-10.94-12.35-16.51-2.13-2.95-3-6.17-1.18-9.72,1.48-2.88.18-4.55-2.52-5.88-4.46-2.19-4.27-2.29-3.43-6.97.32-1.81.22-3.67-.28-5.44-1.14-3.86-1.28-3.82,2.85-4.59.6-.17,1.19-.39,1.77-.66-.62-4.79.37-9.88-4.39-14.56-.3,3.31-.52,5.71-.76,8.34-3.48-.07-4.29-2.24-4.65-4.51-1.03-6.39-1.69-12.85-2.9-19.21-.56-2.78-1.64-5.43-3.18-7.81-2.56-3.96-2.78-7.67-2.15-12.43,1.17-8.81,4.43-17.58,2-26.69-.15-.55-.02-1.22-.27-1.7-3.42-6.44-5.12-13.66-4.91-20.94.07-2.83-.44-5.67-.55-8.51-.39-9.56-.74-19.11-1.06-28.67-.11-3.45.12-6.93-.2-10.36-.63-6.66-1.48-13.3-2.36-19.93-.52-3.27-2.25-6.22-4.86-8.26-4.61-4.05-9.84-7.34-15.5-9.72-5.97-2.48-11.49-6.12-16.99-9.59-3.48-2.15-5.89-5.68-6.63-9.71-.49-2.33-2.04-4.5-3.32-6.61-3.79-6.22-7.72-12.35-11.51-18.57-3.29-5.41-6.33-10.98-9.73-16.32-1.23-2.17-2.97-4-5.06-5.35-5.35-2.89-6.07-8.13-7.24-13.07-.32-1.33.85-3.2,1.74-4.56.96-1.2,2.05-2.29,3.26-3.23,2-1.88,2.47-3.97.4-6-4.39-4.28-3.71-8.84-1.08-13.65,2.44-4.46,3.46-9.87,8.67-12.46.75-.37,1.09-1.54,1.7-2.27,2.18-2.87,4.52-5.6,7.02-8.19,2.2-2.09,3.89-4.12,3.97-7.29.1-4.02.81-8.08.46-12.04-.28-3.13-1.68-6.19-2.76-9.21-.83-2.33-1.94-4.57-2.92-6.85-.91-2.11-1.61-4.42-4.34-4.91-.74-.13-1.4-.11-1.99.03-1.79.42-3.04,1.88-4.23,3.33-.68.92-1.2,1.94-1.54,3.03-1.83,5.21-3.92,5.9-8.16,2.29-2.43-2.16-5.39-3.65-8.58-4.3-2.37-.59-4.48-1.92-6.03-3.81-2.47-3.07-4.84-5.82-8.93-6.77-2.72-.39-4.61-2.92-4.21-5.64.02-.11.04-.23.06-.34.35-2.57-.81-4.39-2.5-6.08-.68-.68-1.27-1.45-1.75-2.28-3.41-5.93-8.35-8.97-15.32-9.66-4.94-.67-9.78-1.95-14.41-3.83-2.4-.89-4.45-2.92-6.41-4.72-2.4-2.21-4.39-4.84-6.79-7.05-3.41-3.16-7.57-4.25-11.67-1.86-5.33,3.12-10.19,2.12-15.32-.26-4.52-2.1-9.22-3.81-13.8-5.79-2.16-.78-4.21-1.85-6.09-3.18-3.04-2.49-6.67-3.57-10.05-5.27-4.86-2.45-9.15-6.15-13.4-9.65-1.94-1.59-1.99-4.11-.58-6.34,3.88-6.17,2.07-11.9-1.71-17.13-3.59-4.97-7.7-9.56-11.65-14.27-1.59-1.9-3.43-3.46-3.08-6.45.15-1.28-.89-2.89-1.77-4.07-2.87-3.84-5.78-7.67-8.93-11.28-2.14-2.24-3.19-5.31-2.87-8.4.27-2.09.32-4.21.16-6.31-.34-3.04-2.22-4.8-4.71-4.95-2.81-.24-5.29,1.85-5.53,4.66,0,.02,0,.05,0,.07-.22,2.43.3,4.87,1.48,7,2.18,3.15,3.66,6.73,4.33,10.5.37,2.07,1.21,4.03,2.44,5.74,2.31,3.33,3.73,7.18,4.15,11.21.49,3.9,1.47,7.52,4.15,10.53.54.55.93,1.23,1.1,1.99.21.86.06,1.77-.4,2.53-.78.42-1.7.46-2.51.13-.85-.43-1.61-1.02-2.23-1.74-.83-1.05-1.78-2.01-2.83-2.85-4.34-2.51-6.24-5.88-5-10.99.63-2.58-1.06-4.32-3.25-5.52-1.9-.93-3.73-1.97-5.5-3.12-2.91-2.09-3.05-3.85-.88-6.74,3.24-4.32,3.44-4.82-.04-8.77-2.66-3.06-4.15-6.97-4.2-11.03-.16-3.07-.38-6.14-.34-9.21.08-6.88-3.36-11.47-9.67-13.38-4.21-1.27-6-3.75-6.57-7.68-.38-2.65-.86-5.3-1.01-7.96-.3-5.37-.38-10.73-.61-16.1-.23-5.34.31-10.29,4.91-14.04,1.43-1.29,2.45-2.96,2.95-4.82,1.69-5.99,5.48-10.43,9.78-14.66,6.69-6.38,12.19-13.89,16.24-22.19,2.38-5.03,2.93-9.06-1.78-13.27-3.71-3.33-3.14-4.4.67-8.22,1.32-1.34,2.2-3.04,2.54-4.88.4-2.65.34-5.36-.16-7.99-.76-3.77-1-7.12,1.91-10.21.71-1.05.83-2.39.32-3.55-.57-.77-2.32-.89-3.55-.89-1.11,0-2.22.73-3.34.78-1.36.24-2.64-.67-2.88-2.03-.04-.25-.05-.51-.01-.76.19-3.6.56-7.19,1.11-10.75.24-1.42,1.35-2.7,2.17-4.24-.91-1.68-1.85-3.32-2.72-5.01-2.96-5.74-7.74-8.29-14.11-8.04-6.04.23-11.86-.07-16.94-4.14-2.06-1.69-5.09-1.47-6.89.5-3.25,3.19-7.28,3.92-11.55,4.48-2.82.44-5.58,1.21-8.21,2.32-2.86,1.14-5.29,1.48-8.11-.45-1.73-1.11-3.82-1.54-5.84-1.2-17.41,3.95-33.04-.94-48.03-9.26-1.28-.95-2.47-2.03-3.54-3.21,1.55-1.17,3.19-2.21,4.91-3.11,4.61-1.89,9.31-3.56,13.99-5.3.52-.26,1.09-.39,1.67-.38,6.26,1.2,11.95-2.2,18.07-2.27,2.59-.03,5.41-.23,6.68-3.64-2.11-2.1-4.65-1.61-7.03-1.67-2.87.11-5.75.03-8.61-.24-1.61-.29-3.01-1.28-3.83-2.69-.85-2.13.98-3.68,2.86-4.28,3.83-1.21,7.74-2.23,11.67-3.06,5.08-1.09,10.08-1.63,15.3.2,5.25,1.84,7.75-.97,6.21-6.33-.47-1.63-1.12-3.21-1.63-4.66,1.69-2.89,4.3-3.62,7.01-3.82,8.32-.63,16.05-3.45,24.01-5.64,9.93-2.73,20-5.43,30.49-5.61,2.68-.15,5.33-.66,7.88-1.52,2.92-1.05,6.12-.96,8.97.25,1.04.5,2.15.85,3.29,1.02,6.24.77,12.5,1.42,18.74,2.19,1.7.27,3.38.63,5.04,1.07,1.44.52,2.95.86,4.47,1.03,8.82-.19,17.63.67,26.24,2.55,2.25.33,4.44.98,6.51,1.92,3.2,1.85,7.02,2.3,10.56,1.26,7.02-2.03,14.31-2.99,21.62-2.84,2.06.06,4.12-.83,6.2-1.11,3.59-.49,7.19-.85,10.79-1.26,1.33-.05,2.65-.21,3.94-.5,5.4-1.66,5.39-1.71,9.39,3.14,5.4-.38,11.29-1.06,17.17-1.11,2.98-.02,6,.95,8.93,1.72,3.33.87,6.54,2.29,9.9,2.98,3.68.75,5.06-.29,6.68-3.73.98-2.08,2.2-4.05,3.08-6.17.77-1.86,1.19-3.86,2.12-6.96-4.2.77-7.33,1.33-10.45,1.93-3.39.65-6.76,1.39-10.15,1.99-2.39.42-4.36-.52-5.02-2.82s1.3-3.46,3.01-4.32c6.5-3.28,12.99-6.6,19.6-9.63,4.4-2.01,9.07-.95,13.65-.38,2.47.31,4.96,1.01,7.41.91,5.16-.25,10.26,1.25,14.46,4.26,3.54,2.37,8.8,3.32,13.15,3,3.52-.26,5.78.74,8.7,3.01,4.89-6.75,12.97-5.17,19.57-7.72.41-.16,1.21.69,2.52,1.48-4.23,4.37-10.89,6.19-11.76,13.61,1.05.82,2.58,1.87,3.92,3.1,2.07,1.9,1.6,3.59-1.02,4.67-2.28.88-4.49,1.94-6.61,3.18-3.44,2.14-7.05,1.39-10.65,1.02-2.81-.29-5.59-.81-8.99-1.31,1.03,3.43,4.13,5.82,7.7,5.96,6.67.6,13.37.86,20.07.76,2.68,0,4.58-1.7,5.52-4.35,1.2-3.41,4.05-5.05,7.24-6.04,1.45-.49,3.01-.54,4.49-.12,1.38.55,2.48,1.62,3.07,2.98.27.74-1,2.15-1.75,3.13-.66.7-1.4,1.34-2.19,1.9,3.88,1.32,8.59.07,10.06-2.78.49-1.18.42-2.51-.19-3.63-2.15-3.13-1.18-5.29,1.49-7.37.81-.63,1.27-1.73,2.48-3.46-3.84-.28-7.07.03-9.9-.89-2.89-.93-4.82-3.54-6.26-7.26,8.1,1.04,13.35-6.03,20.89-5.44.55.04,1.16-.37,1.69-.27,1.78.32,3.53.78,5.3,1.19-.5,1.53-.91,3.1-1.51,4.59-.58,1.44-1.36,2.81-2.17,4.44,3.13.74,4.63-.57,5.62-2.15,3.92-6.26,11.04-7.32,16.83-10.5.94-.52,2.6-.1,3.8.3,2.14.7,4.18,1.71,6.47,2.7.12,2.51-1.91,3.41-3.85,4.02-2.73.87-5.58,1.36-8.38,2.03-2.26.44-4.48,1-6.67,1.7-2.46.91-4.36,2.49-4.09,5.55,0,.58-.04,1.15-.11,1.72-.09,2.63-1.09,5.79.03,7.72,1.08,1.86,4.37,2.43,6.65,3.64.47.25.76.83,1.41,1.58-.67,1-1.42,2.03-2.05,3.12-.53.91-.92,1.91-1.41,2.95,3.13,1.86,5.46.44,7.79-.87q11.43-6.42,13.09-11.8c-1.92-.54-3.82-1.14-5.75-1.61-4.46-1.09-5.54-2.96-3.22-6.99,1.31-2.33,3.17-4.3,5.41-5.75,8.38-5.06,17.15-8.58,27.32-5.66,2.13.61,4.58.14,6.88.14,7.81,0,15.62.16,23.42-.07,2.95-.29,5.73,1.46,6.73,4.26,1.95,4.29,5.19,5.88,9.9,6.57,3.97.58,7.72,3.08,11.4,5.05.69.37.98,2.36.74,3.44-1.59,7.14-.31,9.35,6.65,11.94,2.88,1.05,5.62,2.45,8.15,4.18,3.91,2.73,3.83,4.66-.35,7.35-3.14,1.83-6.38,3.49-9.71,4.97-2.25,1.38-5.18.67-6.56-1.57,0,0,0-.02-.01-.02-.79-1.09-1.66-2.12-2.63-3.06-2.04-1.9-4.7-2.13-6.2-.67-1.45,1.42-1.35,4.15.33,6.28.59.75,1.42,1.3,2.04,2.03,2.36,2.78,2.28,5.58-.18,8.2-2.96,3.14-4.87,3.51-9.07,1.95-1.53-.57-3.16-.88-5.75-1.58,1.22,2.61,1.97,4.21,2.75,5.88-1.73,2.57-4.19,1.85-6.27,1.32-4.84-1.19-9.62-2.62-14.32-4.31-1.4-.51-2.59-2.18-3.43-3.59-4.59-7.76-8.03-9.2-16.58-6.74-2.89.83-5.94,2.22-8.29-1.41.74-3.51,3.36-4.38,6.41-4.44,3.07-.06,6.15.05,9.22.19,3.5.24,6.91-1.15,9.24-3.77,1.84-1.64,3.91-3.01,6.15-4.06,1.66-.92,3.64-1.32,5.24-2.33,3.42-2.17,3.32-5.45-.43-6.87-3.34-1.27-5.3-3.65-7.21-6.3-2.12-2.93-4.45-4.11-8.38-2.94-3.16.94-6.78.41-10.19.39-3.54-.02-5.78.38-8.07,4.36-2.37,4.12-6.5,7.58-9.43,11.72-.66.94-2.32,1.27-3.6,1.66-1.64.51-3.4.69-5.02,1.23-2.72.91-5.33,2.63-8.08,2.83-2.35.17-4.83-1.3-7.56-2.14-.47,3.42,1.86,4.34,3.62,5.59,2.49,1.79,5.14,3.36,7.47,5.34,1.35,1.15,3.13,2.71,1.44,4.88-1.47,1.88-3.41,1.34-5.26.64-.72-.27-1.42-.6-2.08-.98-3-1.77-5.82-1.18-8.72.38-2.11,1.29-4.4,2.26-6.8,2.87-1.66.11-3.29-.51-4.47-1.68-1.53-1.61-.07-3.27,1.22-4.41,1.43-1.26,3.1-2.24,4.25-3.88-2.66-1.23-4.32.03-5.99.92-4.43,2.37-8.9,4.53-14.09,4.66-.96.04-1.9.32-2.74.8-12.01,6.85-26.03,9.1-37.7,16.85-6.44,4.28-9.02,6.28-11.3,11.95,2.26,2.33,4.94,4.7,2.93,8.74-.18.36,1.98,2.73,2.82,2.6,6.85-1.05,11.65,2.71,16.72,6.3,5.27,3.73,11.17,5.96,17.84,5.4.38-.07.76-.08,1.14,0,1.56.5,3.67.61,4.51,1.7,1.37,1.78.04,3.63-1.51,4.96-1.65,1.4-3.08,2.66-2.4,5.3.27,1.04-.65,2.55-1.35,3.63-1.88,2.89-.57,5.14,1.29,7.24,1.92,2.16,4.38,2.32,6.85,1.2,4-1.62,6.92-5.13,7.79-9.35.7-3.15.91-7.08,2.92-9.05,1.77-1.74,5.77-1.1,8.73-1.79,3.2-.6,6.32-1.53,9.33-2.76,8.82-3.81,13.85-13.2,12.14-22.66-.64-2.99.19-6.1,2.23-8.38,2.69-3.43,4.96-7.17,7.31-10.85,2.6-4.09,4.05-5.01,8.49-3.82,4.85,1.29,9.51,2.84,14.6.83,1.07-.42,3.05.46,4.16,1.32,3.57,2.78,6.93,5.84,10.73,9.1-.51,1.28-1.13,2.52-1.85,3.7-1.8,2.17-1.68,5.34.27,7.37,2.06,2.53,4.66,2.67,7.24,1.22,3.89-2.01,7.61-4.33,11.12-6.94,6.51-5.19,8.64-4.75,11.25,3.16,1.71,4.71,2.28,9.75,1.65,14.72-.76,5.14.34,7.18,5.03,8.99,4.05,1.56,7.97,3.01,9.19,7.78,5.66,4.29,4.72,8.64.66,13.65-2.29,2.83-2.04,7.14-5.12,9.93-1.44,1.31-.09,3.88,1.94,4.49.94.17,1.9.27,2.85.31,5.29.82,6.15,2.16,5.21,7.28-.2,1.63-.13,3.29.21,4.9.32,2.1,1.03,4.32-1.09,5.79-2.05,1.43-3.89.4-5.81-.81-5.92-3.72-12.81-3.26-19.37-4.16-2.36-.32-4.73-.59-7.6-.94,2.35-5.3,6.09-8.35,9.44-11.65s6.91-6.33,10.39-9.48c-.14-.45-.28-.89-.42-1.34-1.3-.39-2.64-.57-4-.55-1.51.29-2.94.91-4.18,1.83-6.53,4.83-13.78,6.35-21.78,5.49-2.52-.27-5.16.43-8.95.81l5.4,5.08c-4.47,1.87-6.17,1.64-7.37-1.92-1.11-3.26-3.2-4.06-6.07-4.07-2.86-.16-5.73-.05-8.58.31-2.65.26-4.81,2.25-5.29,4.87,4,2.6,9.85-1.75,13.36,3.84-1.79,2.12-3.69,4.22-5.42,6.45-2.81,3.64-2.72,7.76.31,10.31.95.8,2.5,1.65,3.53,1.41,2.47-.57,4.63-1.27,7.11.34.67.44,2.68-.87,3.88-1.66,1.87-1.23,3.57-2.71,5.34-4.07,2.85,3.52,2.96,4.88.4,6.85-1.53,1.16-3.23,2.07-5.05,2.7-4.34,1.52-8.71,3.01-13.17,4.13-4.7,1.18-9.18,2.63-13.16,5.55-1.93,1.42-4.28,3.2-6.69.91-1.48-1.4-.36-3.51,2.97-6.33.57-.71,1.08-1.46,1.5-2.27-2.94.46-5.16.5-7.16,1.18-6.72,2.27-13.45,4.55-20,7.28-3.04,1.13-5.74,3.01-7.88,5.44-1.7,2.21-1.86,5.61-2.78,8.73-6.65,2.15-13.72,4.3-20.68,6.77-1.67.59-3,2.2-4.43,3.39-2.33,1.93-4.63,3.88-6.91,5.86-1.21.89-2.29,1.95-3.21,3.14-3.39,5.27-3.34,5.31-9.97,4.95.11,2.45.09,4.88.38,7.26.65,5.22-.45,9.44-5.64,11.95-5.34,2.58-10.58,5.38-15.87,8.09-.36.12-.72.26-1.06.43-6.84,4.9-13.94,9.49-20.41,14.83-4.55,3.76-4.7,9.32-3.67,14.92.93,5.07,1.59,10.19,2.17,15.31.13,1.17-.54,2.43-.96,4.14"/>
  </g>
  <g id="afrique">
    <path class="cls-1" d="m1107.36,415.67c-2.85,1.05-5.84,2.37-8.78,2.41-8.18.11-15.67,3.2-23.49,4.79-3.41.69-6.07.35-8.39-2.08-1.7-1.79-3.21-3.76-4.9-5.77.45-1.08-4.64-10.43-6.15-11.96-3.79-4.61-8.47-8.42-13.76-11.18-4.47-2.03-7.56-6.25-8.14-11.13-.54-4.27-2.94-8.08-6.55-10.42-4.56-2.75-7.1-7.91-6.48-13.19.45-4.9-1.67-9.68-5.6-12.63-3.49-2.74-5.92-6.61-6.87-10.94-.74-3.05-2.84-5.82-4.57-8.56-3.16-5.03-6.42-9.98-8.15-16.18h0c.58-.3,1.1-.56,1.6-.8-1.9-7.56-5.21-14.66-9.96-20.87-.26-.05-.52-.09-.79-.16-1.68-.38-3.29-1.05-4.93-1.59-4.02-1.32-7.92-1.38-11.57,1.14-3.45,2.37-7.19,2.48-11.02,1.19-5.61-1.89-11.07-3.82-17.12-4.59-5.39-.68-10.53-3.87-15.63-6.27-3.96-1.86-7.95-2.85-12.26-2.01-6.26,1.22-8.31,3.79-8.37,10.25-.07,6.92-2.8,8.68-8.99,5.44-3.97-2.08-7.89-3.85-12.51-3.75-2.38.08-4.6-1.22-5.7-3.33-3.72-6.56-9.82-8.03-16.69-7.88-5.49.12-12.98-3.57-17.02-8.52,0,0,0,0,0,0h0s0,0,0,0c.33-.83.78-1.61,1.34-2.3,2.95-2.73,4.76-5.55,1.7-9.38-.34-.68-.49-1.44-.43-2.19-.29-5.22-3.17-7.97-7.96-6.42-4.85,1.57-9.37,1.26-14.14.31-1.88-.4-3.84-.31-5.68.26-5.06,1.75-10.2,1.65-15.39,1.41-6.01-.29-12,.13-17.52,2.58-4.52,2.01-8.67,4.81-13.09,7.05-1.81,1.04-3.82,1.67-5.89,1.85-4.59.08-9.19-.34-13.79-.62-2.19-.14-14.79,7.56-20.08,9.5-8.53,3.33-12.56,10.73-13.76,19.14-.66,4.6-2.11,8.24-5.47,10.82-3.6,2.77-7.76,4.8-11.73,7.07-1.48.85-3.43,1.11-4.58,2.24-3.4,3.34-7.73,6.46-9.43,10.6-2.7,6.55-7.03,11.64-11.07,17.14-2.24,3.04-3.57,6.74-5.51,10.02-2.53,4.26-2.6,5.35.63,9.14,1.29,1.52,2.74,2.97,1.81,5.05-1.24,2.76-.43,5.2.5,7.78.51,1.4,1.22,3.26.71,4.41-2.6,5.91-1.98,12.93-6.42,18.18-2.09,2.46-2.13,5.06-.83,8.04.87,1.89,1.2,3.99.93,6.05-.73,3.96.8,6.7,3.54,9.13,3.73,3.32,7.39,6.74,11.25,9.91,4.28,3.52,7.42,7.51,8.62,13.17.7,2.75,2.28,5.2,4.51,6.98,6.96,5.41,14.33,10.31,21.49,15.47,5.39,3.88,10.72,5.14,17.17,1.93,6.91-3.43,14.67-3.6,21.98-1.66,5.62,1.49,10.5,1.28,15.46-1.56,2.04-1.08,4.14-2.03,6.3-2.84,7.33-3.01,14.82-5.25,22.89-5.05,4.66.11,8.12,1.9,10.28,6.11.87,1.71,1.86,3.36,2.85,5,1.18,2.32,3.81,3.5,6.33,2.84,2.45-.47,4.99-.54,7.4-1.14,8.04-2.01,16.7,6.65,13.44,15.43-1.18,3.18-1.4,6.72-2.09,10.09-.46,2.25-.47,4.79-1.58,6.67-2.25,3.79-1.28,7.07.79,10.22,1.61,2.61,3.57,4.97,5.84,7.03,5.25,4.54,9.37,10.24,12.01,16.66,2.05,4.76,4.15,9.5,6.31,14.21,1.26,2.79,1.7,5.89,1.26,8.92-.46,2.99-.08,6.04,1.12,8.82,3.53,6.78,2.37,12.56-2.32,18.05-3.34,3.91-5.64,8.15-5.64,13.5,0,1.63-.9,3.28-1.48,4.89-2.78,7.58-3.6,14.83,2.32,21.58,1.87,2.43,3.46,5.06,4.73,7.85,2.5,4.74,4.88,9.54,7.23,14.35.59,1.19,1,2.47,1.23,3.78,1.18,7.35,2,14.77,3.5,22.05.87,4.25,1.73,9.27,4.47,12.18,5.07,5.38,8.14,11.5,10.68,18.16.65,1.6,1.51,3.11,2.56,4.49,2.29,3.1,3.15,6,1.8,10.1-2.15,6.52,5.8,14.33,12.25,12.58,8.47-2.3,16.87-4.89,25.86-3.51,1.54.13,3.08.02,4.58-.32,16.17-2.67,27.81-12.2,37.45-24.75,2.21-2.87,3.91-6.39,6.69-8.51,6.08-4.31,9.32-11.6,8.46-19-.27-3.52,1.33-5.46,4.21-6.69,2.29-.98,4.67-1.77,7.05-2.53,4.6-1.47,6.79-4.69,7.2-9.38.41-5.38-.35-10.78-2.24-15.83-2.06-5.82-1.76-6.81,3.06-10.85,2.94-2.47,6.2-4.66,8.72-7.49,3.27-3.8,7.57-6.57,12.38-7.98,6.33-1.87,10.2-6.67,13.53-11.9.9-1.69,1.31-3.59,1.19-5.5-.14-7.27-.61-14.54-.78-21.81.04-2.47-.66-4.89-2.01-6.95-3.38-5.18-5.66-10.69-4.78-17.29.34-2.58-.96-5.54-2.08-8.09-1.07-2.43-1.79-4.68-.54-7.13,2.95-5.79,5.85-11.63,9.05-17.29.89-1.58,2.81-2.55,4.16-3.89,1.76-1.73,3.84-3.31,5.06-5.38,5.67-9.69,13.56-17,23.02-22.92,9.98-6.25,16.9-15.5,23.38-25.07.46-.62.77-1.34.91-2.1.69-4.95,3.27-9.02,6.17-12.85,4.25-5.62,5.08-12.38,6.47-18.88,1.1-5.15-1.74-6.95-6.74-5.11Z"/>
    <path id="Tracé_139" data-name="Tracé 139" class="cls-1" d="m1069.15,665.08c-5.21-.07-9.53-4.06-9.99-9.25-.4-3.4-1.24-6.78-1.35-10.18-.07-2.61.32-5.22,1.15-7.7.83-1.94,1.98-3.73,3.41-5.29,3.09-3.88,4.21-8.03,2.57-12.88-.59-1.83-.93-3.72-1.01-5.64-.37-6.9,3.25-11.53,9.77-13.71,3.91-1.47,7.71-3.23,11.37-5.25,1.25-.53,2.29-1.48,2.92-2.68,1.8-5.43,7.11-8.27,9.46-13.29,1.24-2.65,3.84-2.74,5.32-.19,1.05,2.04,1.81,4.21,2.28,6.45.61,2.41.73,4.94,1.39,7.33.76,2.77,0,4.66-2.09,6.61-1.23,1.14-1.81,3.15-2.32,4.87-.59,2-.45,4.25-1.18,6.18-4.28,11.25-7.44,22.92-13.03,33.68-1.57,3.02-2.33,6.47-3.4,9.75-2.64,8.13-6.64,11.08-15.27,11.19"/>
  </g>
</svg>