<?xml version="1.0" encoding="UTF-8"?>
<svg id="Calque_1" data-name="Calque 1" xmlns="http://www.w3.org/2000/svg" viewBox="0 0 64.6 64.6">
  <defs>
    <style>
      .cls-1 {
        fill: #fff;
        fill-rule: evenodd;
        stroke-width: 0px;
      }
    </style>
  </defs>
  <g id="insta">
    <g>
      <path class="cls-1" d="m32.3,25.8h0c-4.1,0-7.5,3.3-7.5,7.4s3.3,7.5,7.4,7.5h.1c4,0,7.4-3.3,7.4-7.5s-3.3-7.4-7.4-7.4Z"/>
      <path class="cls-1" d="m46.3,0h-28.1C8.2,0,0,8.2,0,18.3v28c0,10.1,8.2,18.3,18.3,18.3h28c10.1,0,18.3-8.2,18.3-18.3v-28c-.1-10.1-8.3-18.3-18.3-18.3Zm6.6,42.6c0,6.1-5,11.1-11.1,11.1h-19c-6.1,0-11.1-5-11.1-11.1v-18.9c0-6.1,5-11.1,11.1-11.1h19c6.1,0,11.1,5,11.1,11.1v18.9Z"/>
      <path class="cls-1" d="m41.7,16.1h-18.8c-4.2,0-7.7,3.4-7.7,7.7v18.7c0,4.2,3.4,7.7,7.7,7.7h18.8c4.2,0,7.7-3.4,7.7-7.7v-18.7c-.1-4.2-3.5-7.7-7.7-7.7Zm-9.4,28.2h0c-6.2,0-11.2-5-11.2-11.2s5-11.2,11.1-11.2h.1c6.1,0,11.2,5.1,11.2,11.2s-5.1,11.2-11.2,11.2Zm11-19.8c-1.4,0-2.4-1.1-2.4-2.4s1-2.4,2.4-2.4c1.3,0,2.4,1.1,2.4,2.4s-1.1,2.4-2.4,2.4Z"/>
    </g>
  </g>
</svg>