<?xml version="1.0" encoding="UTF-8"?>
<svg id="Calque_1" data-name="Calque 1" xmlns="http://www.w3.org/2000/svg" viewBox="0 0 64.6 64.6">
  <defs>
    <style>
      .cls-1 {
        fill: #fff;
        fill-rule: evenodd;
        stroke-width: 0px;
      }
    </style>
  </defs>
  <g id="linkdin">
    <path class="cls-1" d="m46.3,0h-28C8.2,0,0,8.2,0,18.3v28c0,10.1,8.2,18.3,18.3,18.3h28c10.1,0,18.3-8.2,18.3-18.3v-28c-.1-10.1-8.3-18.3-18.3-18.3h0Zm-24.7,53h-9.1v-27.4h9.1v27.4h0Zm-4.6-32.7c-3,0-5.4-2.5-5.5-5.5,0-3,2.5-5.5,5.5-5.5s5.5,2.5,5.5,5.5-2.4,5.5-5.5,5.5Zm38.2,32.3v.4h-9.1v-15.8c0-2.3-1.2-4.1-3.4-4.7-2.5-.8-5.5,1.2-5.7,3.8,0,.4-.1.8-.1,1.2v15.5h-9.1v-27.4h9.1v3.3c.9-.8,1.7-1.6,2.7-2.3,3.6-2.5,7.7-2,10.9.3,3,2.1,4.6,5.1,4.7,8.8,0,5.6,0,11.2,0,16.9h0Z"/>
  </g>
</svg>