<?xml version="1.0" encoding="utf-8"?>
<!-- Generator: Adobe Illustrator 28.0.0, SVG Export Plug-In . SVG Version: 6.00 Build 0)  -->
<svg version="1.1" xmlns="http://www.w3.org/2000/svg" xmlns:xlink="http://www.w3.org/1999/xlink" x="0px" y="0px"
	 viewBox="0 0 442.5 64.8" style="enable-background:new 0 0 442.5 64.8;" xml:space="preserve">
<style type="text/css">
	.st0{fill-rule:evenodd;clip-rule:evenodd;fill:#FFFFFF;}
</style>
<g id="tiktok">
	<path class="st0" d="M422.4,0H398c-11.1,0-20.1,9-20.1,20.1v24.4c0,11,9,20.1,20.1,20.1h24.4c11,0,20.1-9,20.1-20.1V20.1
		C442.5,9,433.4,0,422.4,0z M428.2,22.9v5.3c-3.6,0.3-7.2-0.9-9.9-3.3v14.8c0,7.2-5.9,13.1-13.2,13.1c-2.8,0-5.4-0.9-7.6-2.3
		c-3.4-2.3-5.7-6.3-5.7-10.7c0-7.3,6-13.2,13.2-13.2c0.6,0,1.2,0.1,1.8,0.2v7.2c-0.6-0.2-1.2-0.3-1.8-0.3c-3.4,0-6.1,2.7-6.1,6
		c0,2.2,1.4,4.3,3.2,5.3c0.9,0.5,1.8,0.7,2.9,0.7c3.3,0,6-2.7,6-6V11.3h7.1c0,0.6,0.1,1.2,0.2,1.8c0.5,2.7,2.2,5.4,4.6,6.9
		c1.5,1,3.3,1.5,5.1,1.2V22.9L428.2,22.9z"/>
</g>
<g id="X">
	<g>
		<path class="st0" d="M345.1,44c-1-1.4-1.9-2.7-2.9-4.1c-0.8-1.2-1.6-2.4-2.5-3.5c-0.7-1-1.4-1.9-2-2.8c-0.7-1-1.4-2-2.1-3
			c-0.5-0.8-1.1-1.5-1.6-2.3c-0.7-0.9-1.3-1.9-2-2.8c-0.5-0.8-1.1-1.5-1.6-2.2c-0.5-0.8-1.1-1.5-1.6-2.3c-0.5-0.8-1.1-1.6-1.6-2.4
			c-0.2-0.3-0.4-0.6-0.9-0.6c-1.4,0-2.8,0-4.2,0c-0.1,0-0.2,0-0.3,0c0.1,0.2,0.3,0.5,0.4,0.6c0.8,1.2,1.6,2.3,2.5,3.5
			c0.7,1,1.4,2,2.1,3.1c0.9,1.2,1.7,2.4,2.6,3.6c0.8,1.1,1.6,2.3,2.4,3.5c0.9,1.2,1.7,2.4,2.6,3.7c0.8,1.1,1.6,2.3,2.4,3.4
			c0.7,1,1.4,1.9,2.1,2.9c0.6,0.8,1.1,1.6,1.7,2.4c0.4,0.5,0.8,1,1.1,1.6c0.2,0.3,0.3,0.3,0.6,0.3c1.2,0,2.5,0,3.7,0
			c0.2,0,0.4,0,0.7,0c0-0.1,0-0.2,0-0.2C346.3,45.6,345.7,44.8,345.1,44z"/>
		<path class="st0" d="M348.4,0h-27.9c-10.1,0-18.3,8.2-18.3,18.3v27.9c0,10.1,8.2,18.3,18.3,18.3h27.9c10.1,0,18.3-8.2,18.3-18.3
			V18.3C366.7,8.2,358.4,0,348.4,0z M353.8,50.5c-0.6,0-1.2,0-1.8,0c-3.8,0-7.5,0-11.3,0c-0.4,0-0.6-0.1-0.9-0.4c-1-1.4-2-2.8-3-4.2
			c-0.8-1.1-1.6-2.3-2.4-3.4c-0.8-1.2-1.6-2.4-2.5-3.6c-0.2-0.2-0.4-0.5-0.6-0.8c0-0.1-0.3-0.1-0.3,0c-0.9,0.9-1.7,1.8-2.6,2.8
			c-0.6,0.7-1.2,1.3-1.8,2c-1.5,1.6-3,3.3-4.5,4.9c-0.8,0.8-1.5,1.7-2.3,2.5c-0.1,0.1-0.3,0.2-0.5,0.2c-1.5,0-2.9,0-4.4,0
			c-0.1,0-0.2-0.1-0.3-0.1c0.1-0.1,0.1-0.2,0.2-0.3c1.6-1.8,3.2-3.6,4.9-5.3c1.4-1.5,2.8-3,4.2-4.6c1.2-1.3,2.5-2.7,3.7-4.1
			c0.4-0.4,0.8-0.8,1.1-1.2c0.1-0.1,0.1-0.3,0-0.4c-1-1.5-2-2.9-3-4.3c-1-1.4-1.9-2.8-2.9-4.1c-0.9-1.2-1.7-2.4-2.6-3.6
			c-0.7-1-1.3-1.9-2-2.9c-0.7-1-1.4-1.9-2-2.9c-0.5-0.8-1.1-1.5-1.6-2.3c-0.1-0.2,0-0.3,0.1-0.3c0.3,0,0.5,0,0.8,0
			c4.2,0,8.4,0,12.6,0c0.4,0,0.6,0.1,0.8,0.4c0.9,1.4,1.9,2.7,2.9,4.1c0.8,1.2,1.7,2.4,2.5,3.6c0.7,1,1.4,1.9,2.1,2.9
			c0.1,0.2,0.3,0.4,0.4,0.5c0.1,0.3,0.3,0.2,0.4,0c1-1.1,2.1-2.2,3.1-3.4c1.2-1.3,2.5-2.6,3.7-4c1-1,1.9-2.1,2.8-3.1
			c0.3-0.3,0.6-0.6,0.9-0.9c0.1-0.1,0.3-0.1,0.4-0.1c1.5,0,3,0,4.5,0c0.1,0,0.2,0,0.4,0.1c-0.9,0.9-1.6,1.8-2.4,2.7
			c-1.5,1.6-3,3.2-4.5,4.9c-1.7,1.9-3.5,3.8-5.2,5.7c-0.5,0.5-1,1.1-1.5,1.6c-0.1,0.1-0.2,0.3,0,0.5c0.9,1.2,1.7,2.4,2.6,3.6
			c0.8,1.2,1.6,2.3,2.4,3.5c1,1.4,1.9,2.7,2.8,4.1c1.1,1.6,2.2,3.2,3.4,4.8c0.6,0.9,1.3,1.8,1.9,2.8c0.5,0.7,0.9,1.3,1.4,2
			c0,0.1,0.1,0.2,0.1,0.2C354,50.4,353.9,50.5,353.8,50.5z"/>
	</g>
</g>
<g id="linkdin">
	<path class="st0" d="M197.9,0.2h-28c-10.1,0-18.3,8.2-18.3,18.3v28c0,10.1,8.2,18.3,18.3,18.3h28c10.1,0,18.3-8.2,18.3-18.3v-28
		C216.1,8.4,207.9,0.2,197.9,0.2L197.9,0.2z M173.2,53.2h-9.1V25.8h9.1L173.2,53.2L173.2,53.2z M168.6,20.5c-3,0-5.4-2.5-5.5-5.5
		c0-3,2.5-5.5,5.5-5.5c3,0,5.5,2.5,5.5,5.5C174.1,18.1,171.7,20.5,168.6,20.5z M206.8,52.8c0,0.1,0,0.2,0,0.4h-9.1v-0.7
		c0-5,0-10.1,0-15.1c0-2.3-1.2-4.1-3.4-4.7c-2.5-0.8-5.5,1.2-5.7,3.8c0,0.4-0.1,0.8-0.1,1.2c0,4.9,0,9.9,0,14.8v0.7h-9.1V25.8h9.1
		v3.3c0.9-0.8,1.7-1.6,2.7-2.3c3.6-2.5,7.7-2,10.9,0.3c3,2.1,4.6,5.1,4.7,8.8C206.8,41.5,206.8,47.1,206.8,52.8L206.8,52.8z"/>
</g>
<g id="youtube">
	<g>
		<path class="st0" d="M273.6,0.5h-29c-9.5,0-17.3,7.8-17.3,17.3v29c0,9.5,7.8,17.3,17.3,17.3h29c9.5,0,17.3-7.8,17.3-17.3v-29
			C290.9,8.3,283.1,0.5,273.6,0.5z M278.3,40c-0.6,4.6-2.9,5.2-7.4,5.6c-3.9,0.4-8.3,0.5-11.7,0.5s-7.9-0.1-11.7-0.5
			c-4.5-0.4-6.8-1.1-7.4-5.6c-0.2-2-0.4-4.9-0.4-7.8s0.1-5.7,0.4-7.8c0.6-4.5,3-5.2,7.4-5.6c3.8-0.3,8.3-0.5,11.7-0.5
			s7.8,0.1,11.7,0.5c4.5,0.4,6.8,1.1,7.4,5.6c0.3,2,0.5,4.9,0.5,7.8S278.6,38,278.3,40z"/>
		<polygon class="st0" points="255.7,26.6 265.9,32.5 255.7,38.4 		"/>
	</g>
</g>
<g id="facebook">
	<path class="st0" d="M48.3,0.2h-32C7.3,0.2,0,7.5,0,16.5v32c0,9,7.3,16.3,16.3,16.3h32c9,0,16.3-7.3,16.3-16.3v-32
		C64.6,7.5,57.2,0.2,48.3,0.2z M43.1,18.6h-3.8c-2.1,0-4.3,1.3-4.3,3.6v6.2h7.8l-1.3,8.2H35v20.3h-8.8V36.6h-7.4v-8.2h7.4v-6.1
		c0-6.1,3.6-11.2,10.1-10.8l6.8,0.3C43.1,11.8,43.1,18.6,43.1,18.6z"/>
</g>
<g id="insta">
	<g>
		<path class="st0" d="M108.1,26L108.1,26c-4.1,0-7.5,3.3-7.5,7.4s3.3,7.5,7.4,7.5h0.1c4,0,7.4-3.3,7.4-7.5S112.2,26,108.1,26z"/>
		<path class="st0" d="M122.1,0.2H94C84,0.2,75.8,8.4,75.8,18.5v28c0,10.1,8.2,18.3,18.3,18.3h28c10.1,0,18.3-8.2,18.3-18.3v-28
			C140.3,8.4,132.1,0.2,122.1,0.2z M128.7,42.8c0,6.1-5,11.1-11.1,11.1h-19c-6.1,0-11.1-5-11.1-11.1V23.9c0-6.1,5-11.1,11.1-11.1h19
			c6.1,0,11.1,5,11.1,11.1V42.8z"/>
		<path class="st0" d="M117.5,16.3H98.7c-4.2,0-7.7,3.4-7.7,7.7v18.7c0,4.2,3.4,7.7,7.7,7.7h18.8c4.2,0,7.7-3.4,7.7-7.7V24
			C125.1,19.8,121.7,16.3,117.5,16.3z M108.1,44.5L108.1,44.5c-6.2,0-11.2-5-11.2-11.2s5-11.2,11.1-11.2h0.1
			c6.1,0,11.2,5.1,11.2,11.2S114.2,44.5,108.1,44.5z M119.1,24.7c-1.4,0-2.4-1.1-2.4-2.4s1-2.4,2.4-2.4c1.3,0,2.4,1.1,2.4,2.4
			S120.4,24.7,119.1,24.7z"/>
	</g>
</g>
</svg>
