<?xml version="1.0" encoding="UTF-8"?>
<svg id="Calque_1" data-name="Calque 1" xmlns="http://www.w3.org/2000/svg" viewBox="0 0 64.6 64.6">
  <defs>
    <style>
      .cls-1 {
        fill: #fff;
        fill-rule: evenodd;
        stroke-width: 0px;
      }
    </style>
  </defs>
  <g id="tiktok">
    <path class="cls-1" d="m44.5,0h-24.4C9,0,0,9,0,20.1v24.4c0,11,9,20.1,20.1,20.1h24.4c11,0,20.1-9,20.1-20.1v-24.4c0-11.1-9.1-20.1-20.1-20.1Zm5.8,22.9v5.3c-3.6.3-7.2-.9-9.9-3.3v14.8c0,7.2-5.9,13.1-13.2,13.1-2.8,0-5.4-.9-7.6-2.3-3.4-2.3-5.7-6.3-5.7-10.7,0-7.3,6-13.2,13.2-13.2.6,0,1.2.1,1.8.2v7.2c-.6-.2-1.2-.3-1.8-.3-3.4,0-6.1,2.7-6.1,6,0,2.2,1.4,4.3,3.2,5.3.9.5,1.8.7,2.9.7,3.3,0,6-2.7,6-6V11.3h7.1c0,.6.1,1.2.2,1.8.5,2.7,2.2,5.4,4.6,6.9,1.5,1,3.3,1.5,5.1,1.2v1.7h.2Z"/>
  </g>
</svg>