<?xml version="1.0" encoding="UTF-8"?>
<svg id="Calque_1" data-name="Calque 1" xmlns="http://www.w3.org/2000/svg" viewBox="0 0 64.5 64.5">
  <defs>
    <style>
      .cls-1 {
        fill: #fff;
        fill-rule: evenodd;
        stroke-width: 0px;
      }
    </style>
  </defs>
  <g id="X">
    <g>
      <path class="cls-1" d="m42.9,44c-1-1.4-1.9-2.7-2.9-4.1-.8-1.2-1.6-2.4-2.5-3.5-.7-1-1.4-1.9-2-2.8-.7-1-1.4-2-2.1-3-.5-.8-1.1-1.5-1.6-2.3-.7-.9-1.3-1.9-2-2.8-.5-.8-1.1-1.5-1.6-2.2-.5-.8-1.1-1.5-1.6-2.3s-1.1-1.6-1.6-2.4c-.2-.3-.4-.6-.9-.6h-4.5c.1.2.3.5.4.6.8,1.2,1.6,2.3,2.5,3.5.7,1,1.4,2,2.1,3.1.9,1.2,1.7,2.4,2.6,3.6.8,1.1,1.6,2.3,2.4,3.5.9,1.2,1.7,2.4,2.6,3.7.8,1.1,1.6,2.3,2.4,3.4.7,1,1.4,1.9,2.1,2.9.6.8,1.1,1.6,1.7,2.4.4.5.8,1,1.1,1.6.2.3.3.3.6.3h4.4v-.2c-.4-.8-1-1.6-1.6-2.4Z"/>
      <path class="cls-1" d="m46.2,0h-27.9C8.2,0,0,8.2,0,18.3v27.9c0,10.1,8.2,18.3,18.3,18.3h27.9c10.1,0,18.3-8.2,18.3-18.3v-27.9c0-10.1-8.3-18.3-18.3-18.3Zm5.4,50.5h-13.1c-.4,0-.6-.1-.9-.4-1-1.4-2-2.8-3-4.2-.8-1.1-1.6-2.3-2.4-3.4-.8-1.2-1.6-2.4-2.5-3.6-.2-.2-.4-.5-.6-.8,0-.1-.3-.1-.3,0-.9.9-1.7,1.8-2.6,2.8-.6.7-1.2,1.3-1.8,2-1.5,1.6-3,3.3-4.5,4.9-.8.8-1.5,1.7-2.3,2.5-.1.1-.3.2-.5.2h-4.4c-.1,0-.2-.1-.3-.1.1-.1.1-.2.2-.3,1.6-1.8,3.2-3.6,4.9-5.3,1.4-1.5,2.8-3,4.2-4.6,1.2-1.3,2.5-2.7,3.7-4.1.4-.4.8-.8,1.1-1.2.1-.1.1-.3,0-.4-1-1.5-2-2.9-3-4.3s-1.9-2.8-2.9-4.1c-.9-1.2-1.7-2.4-2.6-3.6-.7-1-1.3-1.9-2-2.9s-1.4-1.9-2-2.9c-.5-.8-1.1-1.5-1.6-2.3-.1-.2,0-.3.1-.3h13.4c.4,0,.6.1.8.4.9,1.4,1.9,2.7,2.9,4.1.8,1.2,1.7,2.4,2.5,3.6.7,1,1.4,1.9,2.1,2.9.1.2.3.4.4.5.1.3.3.2.4,0,1-1.1,2.1-2.2,3.1-3.4,1.2-1.3,2.5-2.6,3.7-4,1-1,1.9-2.1,2.8-3.1.3-.3.6-.6.9-.9.1-.1.3-.1.4-.1h4.5c.1,0,.2,0,.4.1-.9.9-1.6,1.8-2.4,2.7-1.5,1.6-3,3.2-4.5,4.9-1.7,1.9-3.5,3.8-5.2,5.7-.5.5-1,1.1-1.5,1.6-.1.1-.2.3,0,.5.9,1.2,1.7,2.4,2.6,3.6.8,1.2,1.6,2.3,2.4,3.5,1,1.4,1.9,2.7,2.8,4.1,1.1,1.6,2.2,3.2,3.4,4.8.6.9,1.3,1.8,1.9,2.8.5.7.9,1.3,1.4,2,0,.1.1.2.1.2,0-.2-.1-.1-.2-.1Z"/>
    </g>
  </g>
</svg>