<?xml version="1.0" encoding="UTF-8"?>
<svg id="Calque_1" data-name="Calque 1" xmlns="http://www.w3.org/2000/svg" viewBox="0 0 63.6 63.6">
  <defs>
    <style>
      .cls-1 {
        fill: #fff;
        fill-rule: evenodd;
        stroke-width: 0px;
      }
    </style>
  </defs>
  <g id="youtube">
    <g>
      <path class="cls-1" d="m46.3,0h-29C7.8,0,0,7.8,0,17.3v29c0,9.5,7.8,17.3,17.3,17.3h29c9.5,0,17.3-7.8,17.3-17.3v-29C63.6,7.8,55.8,0,46.3,0Zm4.7,39.5c-.6,4.6-2.9,5.2-7.4,5.6-3.9.4-8.3.5-11.7.5s-7.9-.1-11.7-.5c-4.5-.4-6.8-1.1-7.4-5.6-.2-2-.4-4.9-.4-7.8s.1-5.7.4-7.8c.6-4.5,3-5.2,7.4-5.6,3.8-.3,8.3-.5,11.7-.5s7.8.1,11.7.5c4.5.4,6.8,1.1,7.4,5.6.3,2,.5,4.9.5,7.8s-.2,5.8-.5,7.8Z"/>
      <polygon class="cls-1" points="28.4 26.1 38.6 32 28.4 37.9 28.4 26.1"/>
    </g>
  </g>
</svg>